<?xml version="1.0" encoding="UTF-8" standalone="no"?>
<!-- Created with Inkscape (http://www.inkscape.org/) -->

<svg
   xmlns:dc="http://purl.org/dc/elements/1.1/"
   xmlns:cc="http://creativecommons.org/ns#"
   xmlns:rdf="http://www.w3.org/1999/02/22-rdf-syntax-ns#"
   xmlns:svg="http://www.w3.org/2000/svg"
   xmlns="http://www.w3.org/2000/svg"
   xmlns:sodipodi="http://sodipodi.sourceforge.net/DTD/sodipodi-0.dtd"
   xmlns:inkscape="http://www.inkscape.org/namespaces/inkscape"
   id="svg2461"
   sodipodi:docname="wanted.svg"
   viewBox="0 0 400.00001 300.00001"
   sodipodi:version="0.32"
   version="1.0"
   inkscape:output_extension="org.inkscape.output.svg.inkscape"
   inkscape:version="0.92.3 (2405546, 2018-03-11)"
   width="400"
   height="300">
  <sodipodi:namedview
     id="base"
     bordercolor="#666666"
     inkscape:pageshadow="2"
     guidetolerance="10.0"
     pagecolor="#ffffff"
     gridtolerance="10.0"
     inkscape:zoom="3.6203867"
     objecttolerance="10.0"
     borderopacity="1.0"
     inkscape:current-layer="svg2461"
     inkscape:cx="350.98956"
     inkscape:cy="16.472759"
     inkscape:window-y="27"
     inkscape:window-x="67"
     inkscape:window-height="977"
     showgrid="false"
     inkscape:pageopacity="0.0"
     inkscape:window-width="1280"
     showborder="true"
     fit-margin-top="0"
     fit-margin-left="0"
     fit-margin-right="0"
     fit-margin-bottom="0"
     inkscape:window-maximized="0"
     inkscape:pagecheckerboard="false"
     showguides="false" />
  <title
     id="title3848">Paper Texture</title>
  <defs
     id="defs2463">
    <filter
       id="filter3196"
       height="1"
       width="1"
       y="0"
       x="0"
       inkscape:label="parchment">
      <feTurbulence
         id="feTurbulence3198"
         baseFrequency="0.085436893203883493 0.11106796116504854"
         seed="0"
         result="result0"
         numOctaves="4"
         type="fractalNoise" />
      <feDiffuseLighting
         id="feDiffuseLighting3200"
         lighting-color="#b6a371"
         diffuseConstant="1.39999998"
         kernelUnitLength="0.01"
         result="result2"
         surfaceScale="0.5">
        <feDistantLight
           id="feDistantLight3202"
           elevation="65"
           azimuth="75" />
      </feDiffuseLighting>
      <feComposite
         id="feComposite3204"
         operator="in"
         in2="SourceGraphic"
         result="result4" />
      <feDisplacementMap
         id="feDisplacementMap3206"
         scale="33.676093"
         yChannelSelector="G"
         in2="result0"
         result="result3"
         xChannelSelector="G" />
      <feComposite
         id="feComposite3208"
         operator="in"
         in2="SourceGraphic"
         result="result1" />
    </filter>
    <filter
       id="filter2408"
       height="1"
       width="1"
       y="0"
       x="0"
       inkscape:label="parchment dark">
      <feTurbulence
         id="feTurbulence2410"
         baseFrequency="0.085436893203883493 0.11106796116504854"
         seed="0"
         result="result0"
         numOctaves="4"
         type="fractalNoise" />
      <feDiffuseLighting
         id="feDiffuseLighting2412"
         lighting-color="#8b7857"
         diffuseConstant="1.39999998"
         kernelUnitLength="0.01"
         result="result2"
         surfaceScale="0.5">
        <feDistantLight
           id="feDistantLight2414"
           elevation="65"
           azimuth="75" />
      </feDiffuseLighting>
      <feComposite
         id="feComposite2416"
         operator="in"
         result="result4"
         in2="SourceGraphic" />
      <feDisplacementMap
         id="feDisplacementMap2418"
         scale="33.676093"
         yChannelSelector="G"
         in2="result0"
         result="result3"
         xChannelSelector="G" />
      <feComposite
         id="feComposite2420"
         operator="in"
         result="result1"
         in2="SourceGraphic" />
    </filter>
    <filter
       id="filter2422"
       height="1"
       width="1"
       y="0"
       x="0"
       inkscape:label="parchment light">
      <feTurbulence
         id="feTurbulence2424"
         baseFrequency="0.085436893203883493 0.11106796116504854"
         seed="0"
         result="result0"
         numOctaves="4"
         type="fractalNoise" />
      <feDiffuseLighting
         id="feDiffuseLighting2426"
         lighting-color="#d2b789"
         diffuseConstant="1.39999998"
         kernelUnitLength="0.01"
         result="result2"
         surfaceScale="0.5">
        <feDistantLight
           id="feDistantLight2428"
           elevation="65"
           azimuth="75" />
      </feDiffuseLighting>
      <feComposite
         id="feComposite2430"
         operator="in"
         in2="SourceGraphic"
         result="result4" />
      <feDisplacementMap
         id="feDisplacementMap2432"
         scale="33.676093"
         yChannelSelector="G"
         in2="result0"
         result="result3"
         xChannelSelector="G" />
      <feComposite
         id="feComposite2434"
         operator="in"
         in2="SourceGraphic"
         result="result1" />
    </filter>
  </defs>
  <rect
     id="rect3722"
     style="fill:#008000;fill-rule:evenodd;filter:url(#filter2422)"
     height="94.211998"
     width="128.24001"
     y="445.1734"
     x="-15.779675"
     inkscape:transform-center-x="666.34448"
     inkscape:transform-center-y="-393.03655"
     transform="matrix(3.1378249,0,0,3.2099362,48.775132,-1429.2749)" />
  <metadata
     id="metadata29">
    <rdf:RDF>
      <cc:Work>
        <dc:format>image/svg+xml</dc:format>
        <dc:type
           rdf:resource="http://purl.org/dc/dcmitype/StillImage" />
        <cc:license
           rdf:resource="http://creativecommons.org/publicdomain/zero/1.0/" />
        <dc:publisher>
          <cc:Agent
             rdf:about="http://openclipart.org/">
            <dc:title>Openclipart</dc:title>
          </cc:Agent>
        </dc:publisher>
        <dc:title>Paper Texture</dc:title>
        <dc:date>2009-03-11T11:42:09</dc:date>
        <dc:description>Modified 3 color version of paper_texture_filter from kelan.</dc:description>
        <dc:source>https://openclipart.org/detail/22158/old_parchment_texture-by-chrisdesign-22158</dc:source>
        <dc:creator>
          <cc:Agent>
            <dc:title>Chrisdesign</dc:title>
          </cc:Agent>
        </dc:creator>
        <dc:subject>
          <rdf:Bag>
            <rdf:li>inkscape filter</rdf:li>
            <rdf:li>jpg</rdf:li>
            <rdf:li>old</rdf:li>
            <rdf:li>paper</rdf:li>
            <rdf:li>parchment</rdf:li>
          </rdf:Bag>
        </dc:subject>
      </cc:Work>
      <cc:License
         rdf:about="http://creativecommons.org/publicdomain/zero/1.0/">
        <cc:permits
           rdf:resource="http://creativecommons.org/ns#Reproduction" />
        <cc:permits
           rdf:resource="http://creativecommons.org/ns#Distribution" />
        <cc:permits
           rdf:resource="http://creativecommons.org/ns#DerivativeWorks" />
      </cc:License>
    </rdf:RDF>
  </metadata>
  <path
     style="fill:#000000;stroke-width:0.21095413"
     d="m 218.14776,182.55908 c -1.16459,-0.37248 -2.28659,-1.02247 -2.92163,-1.69253 -1.11554,-1.17708 -2.03305,-2.56958 -2.68627,-4.07694 -0.69104,-1.5946 -0.75024,-1.89349 -0.74078,-3.73932 0.007,-1.31558 0.12998,-2.33299 0.35797,-2.95549 0.19121,-0.52211 0.49418,-1.42394 0.67328,-2.00406 0.17909,-0.58012 0.61654,-1.58803 0.97211,-2.23978 0.7018,-1.28638 0.67967,-2.0043 -0.0558,-1.81196 -0.2308,0.0603 -0.36874,0.0274 -0.30654,-0.0732 0.14934,-0.24165 -2.76707,-1.12225 -3.18524,-0.96178 -0.17844,0.0685 -0.27722,0.0481 -0.21949,-0.0453 0.17124,-0.27708 -0.92613,-0.79199 -2.58347,-1.21224 -1.52198,-0.38593 -1.55667,-0.38575 -1.84585,0.01 -0.16209,0.22168 -0.29471,0.55984 -0.29471,0.75146 0,0.47654 -0.90855,2.15914 -1.22236,2.26373 -0.40102,0.13368 -0.29939,-0.28714 0.27306,-1.1307 0.29824,-0.43947 0.52739,-1.07874 0.52739,-1.47126 0,-0.64762 -0.10954,-0.75452 -1.6349,-1.5955 -2.67274,-1.47354 -5.84567,-4.9807 -7.41786,-8.19922 -0.36839,-0.75415 -0.8513,-1.70345 -1.07312,-2.10953 -0.22184,-0.40609 -0.68289,-1.35539 -1.02457,-2.10955 -1.18953,-2.62556 -1.49762,-3.27175 -1.70985,-3.58621 -0.11744,-0.17404 -0.44976,-0.83855 -0.73847,-1.47668 -0.28872,-0.63814 -0.61874,-1.30264 -0.73339,-1.47668 -0.34394,-0.52206 -2.54417,-5.29134 -2.54417,-5.51481 0,-0.11389 -0.23159,-0.69958 -0.51463,-1.30152 -0.28304,-0.60195 -0.76325,-1.75895 -1.06713,-2.57113 -0.3039,-0.81217 -0.89063,-2.37851 -1.30387,-3.48074 -1.40947,-3.75946 -1.53064,-4.11383 -1.53753,-4.49661 -0.007,-0.37057 -1.91249,-2.33983 -3.75131,-3.87617 -1.49164,-1.24627 -1.05939,-1.85515 0.50188,-0.70697 0.46679,0.34327 1.11343,0.72479 1.43698,0.8478 l 0.5883,0.22368 -0.12281,-0.79507 c -0.0676,-0.43729 -0.0661,-0.65268 0.003,-0.47864 0.0694,0.17404 0.25421,0.46418 0.41075,0.64476 0.15655,0.18057 0.46716,0.89255 0.69021,1.58215 0.22307,0.68961 0.65248,1.69077 0.95424,2.22481 0.30177,0.53403 0.73772,1.52046 0.96879,2.19206 0.23106,0.67159 0.50745,1.32634 0.61419,1.45499 0.10673,0.12866 0.44135,0.89094 0.7436,1.69397 0.30223,0.80302 0.62647,1.56245 0.72052,1.68764 0.0941,0.12517 0.48493,1.1294 0.86861,2.23164 0.38368,1.10223 0.77764,2.10647 0.87549,2.23165 0.0978,0.12517 0.40815,0.83714 0.68959,1.58215 0.28145,0.74501 0.75795,1.84301 1.05891,2.43998 0.30095,0.59697 0.5472,1.15447 0.5472,1.23889 0,0.16652 3.01805,6.47796 3.42795,7.16864 0.13772,0.23205 0.57012,1.03895 0.9609,1.79311 0.39079,0.75416 0.83404,1.51359 0.98502,1.68763 0.15098,0.17404 0.57132,0.90974 0.9341,1.6349 0.36277,0.72515 0.75122,1.31847 0.86321,1.31847 0.11201,0 0.38536,0.35598 0.60747,0.79107 0.68747,1.34672 3.21961,3.53986 5.15488,4.46479 2.85717,1.36551 4.42435,2.03748 5.31399,2.27851 0.46411,0.12573 1.50833,0.41863 2.3205,0.65091 2.8625,0.81865 2.47935,0.9135 4.473,-1.10727 0.97899,-0.99229 1.86242,-1.80417 1.96319,-1.80417 0.10077,0 0.62732,-0.38437 1.17013,-0.85417 1.74234,-1.50798 1.24561,-0.72396 -0.94454,1.49081 -1.16944,1.18261 -2.12625,2.23183 -2.12625,2.3316 0,0.0998 -0.28541,0.50645 -0.63424,0.90375 -0.34883,0.39729 -0.96665,1.46855 -1.37293,2.38058 -0.40628,0.91201 -0.84714,1.84593 -0.97967,2.07536 -0.51046,0.88364 -0.80533,2.62334 -0.80533,4.75123 0,2.41026 0.36794,4.21827 1.00345,4.93086 0.21998,0.24665 0.60107,0.78525 0.84684,1.19687 1.24578,2.08643 5.26714,3.97131 6.76383,3.1703 l 0.45911,-0.2457 -0.56041,-0.73473 c -0.77109,-1.01095 -0.50161,-1.12372 0.50727,-0.21226 0.48388,0.43715 1.055,0.75474 1.35727,0.75474 0.56972,0 1.31715,-0.66662 1.06235,-0.9475 -0.0873,-0.0962 -0.042,-0.10784 0.10066,-0.0259 0.27536,0.15827 1.00911,-0.15318 1.53378,-0.65102 1.3604,-1.29086 4.77373,-3.34917 8.76735,-5.28692 0.70317,-0.34118 1.47627,-0.87176 1.71799,-1.17907 0.24173,-0.30731 0.62785,-0.55875 0.85803,-0.55875 0.48652,0 1.90866,-0.55881 2.36864,-0.93071 0.17404,-0.14072 0.74362,-0.43361 1.26572,-0.6509 0.52212,-0.21727 1.14045,-0.5628 1.37408,-0.76785 0.23364,-0.20504 0.78165,-0.52191 1.2178,-0.70414 0.78756,-0.32907 0.79117,-0.32829 0.52451,0.11337 -0.14767,0.24459 -0.7385,0.68523 -1.31297,0.97919 -1.36015,0.69602 -2.23619,1.35088 -2.1006,1.57027 0.0595,0.0962 -0.0255,0.1237 -0.18889,0.061 -0.16335,-0.0627 -0.81973,0.15199 -1.4586,0.47707 -6.58291,3.34955 -10.17205,5.43628 -9.95583,5.78833 0.0454,0.0739 -0.0826,0.12138 -0.28436,0.10548 -0.20179,-0.0159 -0.34431,0.0863 -0.31669,0.22717 0.0279,0.14254 -0.0818,0.20547 -0.24738,0.14191 -0.16368,-0.0628 -0.48788,0.0761 -0.72045,0.30867 -0.81418,0.81417 -3.62575,2.60237 -4.72133,3.00281 -1.36585,0.49924 -2.85259,0.4993 -4.41309,2e-4 z m -0.61234,-1.87091 c -1.77552,-0.85774 -3.54626,-2.94383 -4.13258,-4.86856 -0.38126,-1.25157 -0.55242,-3.91322 -0.33422,-5.19743 0.15748,-0.92691 0.17982,-0.79907 0.18422,1.05478 0.005,1.90969 0.0671,2.24365 0.66024,3.52532 0.83342,1.80084 2.66176,3.72412 3.70055,3.89269 0.43249,0.0702 0.78237,0.0215 0.87046,-0.12096 0.081,-0.13108 -0.067,-0.82978 -0.32898,-1.55267 -0.36947,-1.01963 -0.47926,-1.78738 -0.48964,-3.42389 -0.0122,-1.91977 0.0372,-2.19495 0.5488,-3.05884 0.30919,-0.5221 0.92623,-1.28155 1.3712,-1.68763 l 0.80903,-0.73834 -0.67417,0.73834 c -0.37081,0.40608 -0.9259,1.2892 -1.23356,1.96248 -0.49919,1.09242 -0.55048,1.42159 -0.47662,3.05884 0.0842,1.867 0.24897,2.38803 1.59666,5.04969 0.38956,0.76939 0.49264,1.17256 0.33907,1.32612 -0.39642,0.39644 -1.63031,0.41694 -2.41046,0.0401 z m 4.41433,-0.20388 c -0.2624,-0.33459 -0.25494,-0.34204 0.0797,-0.0797 0.3514,0.27559 0.46314,0.44882 0.28953,0.44882 -0.0438,0 -0.20995,-0.16612 -0.36918,-0.36917 z m -2.15295,-1.4591 c -0.0774,-0.0773 -0.13762,-0.33841 -0.13393,-0.58013 0.007,-0.43178 0.0121,-0.43232 0.31643,-0.03 0.17035,0.22522 0.30973,0.48627 0.30973,0.58013 0,0.20639 -0.2977,0.22453 -0.49223,0.03 z m 7.55918,-0.91414 c 0.21001,-0.23205 0.4293,-0.42191 0.48731,-0.42191 0.058,0 -0.0663,0.18986 -0.27634,0.42191 -0.21001,0.23206 -0.4293,0.42191 -0.48731,0.42191 -0.058,0 0.0663,-0.18985 0.27634,-0.42191 z m 1.31496,-0.86999 c 0.14309,-0.14417 0.31331,-0.20898 0.37826,-0.14404 0.065,0.065 -0.0521,0.18291 -0.26017,0.26214 -0.30065,0.11447 -0.32488,0.0902 -0.11809,-0.1181 z m -10.09384,-1.60872 c -0.41624,-1.07413 -0.31625,-2.41257 0.30672,-4.10601 0.49773,-1.35295 0.82746,-1.85836 1.95577,-2.99783 2.55695,-2.58224 5.86914,-4.32313 8.55842,-4.49833 0.89108,-0.058 1.93946,-0.0457 2.32976,0.0276 0.73743,0.13834 2.69519,1.78799 2.69519,2.27101 0,0.14425 -0.31216,-0.0785 -0.69368,-0.49505 -1.05941,-1.15661 -2.6824,-1.47708 -5.04444,-0.99608 -1.50723,0.30694 -4.69645,1.92693 -5.86437,2.97887 -0.52211,0.47026 -0.75943,0.72434 -0.52737,0.56463 0.38703,-0.2664 0.39813,-0.26008 0.1343,0.0765 -0.15818,0.20177 -0.35934,0.3225 -0.44704,0.26832 -0.20275,-0.12531 -1.69133,1.30854 -1.69133,1.62916 0,0.13196 -0.17042,0.43592 -0.37874,0.67544 -0.59525,0.68451 -0.89708,1.8432 -0.9325,3.57981 -0.018,0.88119 -0.0649,1.60217 -0.10428,1.60217 -0.0394,0 -0.17277,-0.26106 -0.29641,-0.58012 z m 12.7746,0.0644 c 0.22521,-0.18043 0.50209,-0.32807 0.61528,-0.32807 0.26803,0 0.14835,0.0975 -0.49739,0.40497 -0.49728,0.23684 -0.50401,0.23244 -0.11789,-0.0769 z m 1.08493,-0.61466 c 0.0731,-0.19044 0.28093,-0.34626 0.4619,-0.34626 0.18095,0 0.28946,0.0269 0.24112,0.0597 -0.0484,0.0328 -0.2562,0.18865 -0.46189,0.34627 -0.32561,0.24948 -0.35681,0.24177 -0.24113,-0.0597 z m 4.72641,-3.77427 c -0.22991,-0.37707 -0.41837,-0.84013 -0.41881,-1.02901 -5.2e-4,-0.40459 -0.57107,-1.83572 -0.91835,-2.30512 -0.13347,-0.18043 0.0184,-0.0416 0.33745,0.30846 0.31906,0.35007 0.58012,0.71129 0.58012,0.80269 0,0.0914 0.14239,0.16618 0.31642,0.16618 0.46466,0 0.39147,-0.55313 -0.31642,-2.39148 -0.34808,-0.90394 -0.63287,-1.68052 -0.63287,-1.72576 0,-0.0452 0.28084,0.079 0.62407,0.27594 0.34324,0.197 0.79014,0.72645 0.99312,1.17659 0.31878,0.70692 0.95919,1.65525 1.76388,2.61198 0.40407,0.4804 2.63056,0.3267 3.74565,-0.25857 1.74198,-0.91432 2.29484,-1.58673 2.60596,-3.16945 0.18643,-0.94842 -0.25908,-2.78135 -0.90342,-3.71687 -0.47061,-0.68328 -0.85565,-1.66479 -0.64956,-1.65574 0.51315,0.0225 1.54609,1.92136 2.44337,4.49165 0.0741,0.21227 0.29173,0.35413 0.48545,0.31643 0.45178,-0.0879 0.87933,-1.27899 0.89982,-2.50671 0.019,-1.13267 -0.80788,-2.63127 -2.37649,-4.30755 -0.5405,-0.5776 -0.98273,-1.15044 -0.98273,-1.27298 0,-0.12254 0.29416,-0.39657 0.65369,-0.60894 0.90046,-0.53193 1.70147,-0.35645 3.56787,0.78162 0.85403,0.52074 1.6775,0.89897 1.82994,0.84048 0.32443,-0.12451 0.37357,-1.03147 0.0662,-1.22146 -0.11604,-0.0717 -0.21097,-0.23868 -0.21097,-0.37107 0,-0.17337 0.0708,-0.16989 0.25315,0.0124 0.82183,0.82183 1.00405,-0.52986 1.06079,-7.86859 l 0.0506,-6.53958 0.069,6.11768 c 0.0683,6.05149 -0.0637,8.18581 -0.70564,11.41725 -0.36699,1.84712 -0.47085,2.12647 -0.8439,2.26962 -0.28323,0.10869 -0.93875,-0.59465 -0.93875,-1.00722 0,-0.11007 -0.16613,-0.39747 -0.36917,-0.63866 -0.36808,-0.43721 -0.36779,-0.43734 0.10009,-0.0416 0.2581,0.21834 0.52554,0.57433 0.59434,0.79108 0.15675,0.49388 0.63896,0.51241 0.82344,0.0316 0.0986,-0.25682 -0.11398,-0.59611 -0.72933,-1.16431 -0.79488,-0.73396 -1.44692,-0.9073 -1.14551,-0.30452 0.0684,0.13701 -0.0249,0.0648 -0.20752,-0.16037 -0.18264,-0.22523 -0.33207,-0.48134 -0.33207,-0.56916 0,-0.23678 1.20163,0.22532 1.49026,0.5731 0.32462,0.39115 0.83023,0.38564 0.83023,-0.009 0,-0.57286 -1.26239,-1.75268 -2.63705,-2.46459 -1.11186,-0.5758 -1.43436,-0.66176 -1.73736,-0.463 -0.20464,0.13423 -0.34833,0.34783 -0.31932,0.47465 0.029,0.12683 -0.0896,0.23058 -0.2637,0.23058 -0.6246,0 -0.25393,0.65129 1.28212,2.25273 0.64783,0.67541 1.29905,1.46534 1.44717,1.7554 0.77002,1.50795 0.49628,3.21222 -0.68956,4.29328 -0.40068,0.36528 -1.2311,1.1388 -1.84537,1.71892 -1.62888,1.53832 -2.15653,1.89169 -3.61899,2.42362 -1.26412,0.45979 -1.59574,0.47027 -3.08153,0.0974 -0.52079,-0.1307 -0.53554,-0.10967 -0.35781,0.51006 0.14764,0.51478 0.0998,0.75523 -0.23506,1.18091 -0.56127,0.71353 -0.94412,0.67355 -1.44691,-0.15109 z m -57.16626,0.051 c -0.87017,-0.0915 -2.73784,-0.27047 -4.15037,-0.39757 -1.86134,-0.16751 -3.22583,-0.43736 -4.95742,-0.98041 -3.90419,-1.22442 -6.21654,-2.60986 -7.77292,-4.65711 -0.40367,-0.53099 -1.06786,-1.3597 -1.47598,-1.8416 -0.4081,-0.48188 -0.96774,-1.30333 -1.24362,-1.82544 -0.27588,-0.52211 -0.67179,-1.13916 -0.87978,-1.37119 -0.20799,-0.23207 -0.55018,-0.80238 -0.76044,-1.2674 -0.21024,-0.465 -0.64331,-1.18595 -0.96238,-1.60207 -0.31907,-0.41612 -0.58013,-0.8336 -0.58013,-0.92772 0,-0.0941 -0.23732,-0.48227 -0.52738,-0.86256 -0.29006,-0.3803 -0.52738,-0.74381 -0.52738,-0.80782 0,-0.37429 -1.33978,-2.2114 -1.52794,-2.09511 -0.12949,0.08 -0.16347,0.0396 -0.0801,-0.0953 0.18047,-0.292 -0.31612,-1.50768 -0.98652,-2.41503 -0.27865,-0.37713 -0.72711,-1.16033 -0.99659,-1.74045 -0.26948,-0.58013 -0.71087,-1.32312 -0.98086,-1.65108 -0.26999,-0.32797 -0.49089,-0.71515 -0.49089,-0.86039 0,-0.14525 -0.28316,-0.69159 -0.62926,-1.21408 -1.13831,-1.71854 -2.04077,-4.33666 -2.52166,-7.31551 -0.24751,-1.53321 -0.54163,-3.02864 -0.65362,-3.32317 -0.26966,-0.70928 -0.26105,-3.91567 0.0124,-4.63503 0.11882,-0.31253 0.44523,-1.62828 0.72535,-2.9239 0.28013,-1.29562 0.75092,-2.83669 1.04621,-3.42462 0.52967,-1.05453 2.04674,-2.8146 2.42601,-2.8146 0.10725,0 0.46335,-0.21681 0.79132,-0.48179 0.32797,-0.26498 1.27465,-0.69445 2.10374,-0.95437 1.60942,-0.50457 2.69931,-1.19584 2.47011,-1.56668 -0.0834,-0.13489 -0.0409,-0.16535 0.10496,-0.0753 0.28662,0.17714 0.38797,-0.048 0.76784,-1.70582 0.85418,-3.72782 2.38438,-7.42782 3.61119,-8.73181 0.28045,-0.29811 0.43739,-0.61454 0.34875,-0.70319 -0.0886,-0.0886 -0.0663,-0.13011 0.0498,-0.0922 0.11603,0.0379 0.56358,-0.14965 0.99455,-0.4169 1.3553,-0.84044 2.04047,-0.94048 7.33814,-1.07139 l 5.16838,-0.12771 1.00685,-0.60299 c 0.55376,-0.33164 1.1073,-0.79069 1.23007,-1.0201 0.31625,-0.59091 0.41972,-0.39694 0.83692,1.56881 0.22066,1.0398 0.27089,1.58302 0.12459,1.34773 -0.73375,-1.18017 -0.84254,-1.24217 -1.75054,-0.99766 -0.50257,0.13532 -2.50615,0.21677 -4.84417,0.19692 -4.48661,-0.0381 -6.09828,0.18386 -7.87511,1.08449 -2.21259,1.1215 -2.73722,2.03846 -4.89101,8.5486 -0.8432,2.54873 -0.69511,5.78758 0.33836,7.39975 0.31022,0.48391 0.99445,2.64821 0.87499,2.76766 -0.17187,0.17188 -1.2524,-1.51437 -2.14321,-3.34463 -0.52435,-1.07733 -1.02691,-2.03231 -1.11678,-2.1222 -0.0899,-0.0899 -0.51787,0.0173 -0.95108,0.23812 -0.43321,0.22087 -1.28319,0.51784 -1.88886,0.65993 -2.15967,0.5067 -3.14191,1.38078 -3.74469,3.33231 -0.34201,1.10732 -0.82839,4.16672 -0.83552,5.25573 -0.003,0.48253 -0.32794,0.2722 -0.57003,-0.36918 -0.26857,-0.7115 -0.57969,-0.81402 -0.80026,-0.26369 -0.28839,0.71955 -0.36836,4.60633 -0.12696,6.17042 0.53314,3.45422 1.52909,6.95701 2.48046,8.72379 0.50893,0.94513 1.31379,2.47787 1.78858,3.40606 0.97258,1.90135 2.26018,4.25425 2.66306,4.86635 0.14752,0.22413 0.52724,0.90773 0.84382,1.51913 0.31658,0.61139 1.12747,2.17772 1.80196,3.48075 0.6745,1.30301 1.38648,2.51162 1.58217,2.6858 0.19568,0.17417 0.71195,0.83867 1.14727,1.47668 1.70403,2.49739 4.48163,5.77062 5.43166,6.40088 1.56968,1.04134 2.02991,1.27573 3.58421,1.82537 2.2312,0.789 3.28847,1.00349 6.27179,1.27231 1.36664,0.12315 3.231,0.36205 4.14301,0.53092 2.16149,0.4002 5.26008,0.38487 6.35806,-0.0315 0.4641,-0.17598 1.14802,-0.41241 1.51982,-0.52539 0.68782,-0.20903 1.53901,-1.08045 1.53901,-1.57559 0,-0.15093 -0.54237,-0.43032 -1.21298,-0.62482 -1.31251,-0.38068 -3.48773,-1.22723 -4.16634,-1.62147 -0.23206,-0.13481 -0.95912,-0.50722 -1.61569,-0.82758 -0.65658,-0.32037 -1.25257,-0.67759 -1.32443,-0.79386 -0.0719,-0.11625 -0.68642,-0.49381 -1.36573,-0.839 -1.85883,-0.94459 -2.99223,-1.8191 -5.36543,-4.13986 -2.42041,-2.36693 -3.57342,-4.20308 -4.504,-7.17244 -0.29088,-0.9282 -0.70717,-2.01989 -0.92507,-2.42597 -0.2179,-0.40609 -0.58549,-1.43946 -0.81688,-2.29639 -0.23139,-0.85692 -0.55313,-1.76014 -0.71498,-2.00715 -0.16185,-0.24702 -0.36104,-0.77998 -0.44266,-1.18437 l -0.14839,-0.73524 0.38442,0.63286 c 0.21143,0.34807 0.56206,1.15498 0.77918,1.79311 0.21714,0.63814 0.55698,1.39757 0.75522,1.68763 0.19825,0.29007 0.58441,1.14443 0.85813,1.89859 0.57918,1.59575 2.08903,4.70731 3.01973,6.22315 0.6288,1.02412 3.3371,3.89607 4.27708,4.53551 2.70121,1.83755 4.27209,2.81515 5.29554,3.29556 0.67161,0.31524 1.55888,0.78409 1.97173,1.0419 0.76038,0.4748 2.85676,1.34601 4.20679,1.74824 1.02182,0.30445 4.95855,0.66483 7.26181,0.6648 2.25223,-4e-5 4.92035,-0.46733 6.19694,-1.08532 0.49948,-0.24178 0.95889,-0.38888 1.02091,-0.32686 0.21247,0.21248 -0.93317,0.798 -2.59063,1.32406 -1.40485,0.4459 -2.22648,0.54578 -5.38566,0.65474 l -3.72789,0.12858 -0.95816,0.91814 c -0.52699,0.50498 -1.07509,0.91814 -1.21798,0.91814 -0.1429,0 -0.50235,0.22662 -0.79876,0.50361 -1.01219,0.94585 -4.87214,1.51431 -8.0278,1.18228 z m -6.22314,-2.22298 c -0.46409,-0.1623 -1.1998,-0.34948 -1.63489,-0.41594 -0.93,-0.14206 -1.03069,-0.45546 -0.21232,-0.66086 0.97254,-0.24408 2.63267,-1.31818 3.79854,-2.45764 0.60913,-0.59533 1.10752,-1.15686 1.10752,-1.24784 0,-0.23003 -0.79247,-0.20824 -0.93708,0.0258 -0.065,0.10515 -0.71136,0.47167 -1.43639,0.81449 -0.72503,0.34283 -1.98275,1.06351 -2.79492,1.60152 -1.49535,0.99056 -2.42597,1.24584 -2.42597,0.66545 0,-0.18168 0.64332,-0.61989 1.52942,-1.04177 1.4735,-0.70156 3.76088,-2.65277 3.10981,-2.65277 -0.42385,0 -2.15087,0.65428 -2.52969,0.95837 -0.4681,0.37576 -1.62436,0.69292 -3.10769,0.85245 -1.43027,0.15382 -1.84896,-0.006 -3.11546,-1.19338 -0.34807,-0.32618 -0.97166,-0.87807 -1.38575,-1.22644 -1.20281,-1.01189 -3.00337,-3.52902 -4.31775,-6.03607 -0.66911,-1.27627 -1.36716,-2.49535 -1.55122,-2.70906 -0.18406,-0.21372 -0.5731,-0.80071 -0.86453,-1.30443 -0.29143,-0.50374 -0.90958,-1.54855 -1.37367,-2.32181 -0.46411,-0.77327 -1.05142,-1.7526 -1.30514,-2.1763 -0.74269,-1.24025 -2.11157,-4.08555 -2.61337,-5.4321 -0.27751,-0.74468 -0.57366,-2.30464 -0.73694,-3.88192 -0.71379,-6.89493 -0.68961,-6.76692 -0.61769,-3.26978 0.0358,1.74037 0.11164,3.41193 0.16854,3.7146 0.057,0.30265 0.0228,0.68082 -0.0758,0.84036 -0.50563,0.81813 -2.08309,-6.06286 -2.09213,-9.12596 -0.008,-2.56636 0.11592,-2.76954 0.91991,-1.51364 l 0.65409,1.02174 0.13286,-1.26572 c 0.36648,-3.49123 0.82549,-6.4627 1.09966,-7.11891 0.43362,-1.03779 1.90024,-1.7362 3.22786,-1.53711 2.41045,0.36147 4.15883,1.83212 5.95923,5.0126 0.37625,0.66469 0.77535,1.26491 0.88685,1.33383 0.11152,0.0689 0.48678,0.68796 0.83393,1.37565 0.58264,1.15422 1.04701,1.59917 1.04701,1.00322 0,-0.4063 -1.01949,-2.93546 -1.70744,-4.23582 -1.89767,-3.58698 -2.52189,-7.73404 -1.45265,-9.65096 0.34121,-0.61172 0.69716,-0.97327 1.00098,-1.01671 0.34855,-0.0498 0.4759,-0.21483 0.48842,-0.63285 0.0905,-3.01815 0.15648,-3.99399 0.2914,-4.30869 0.29473,-0.68739 0.5354,-0.13902 0.56043,1.27697 0.045,2.5439 0.39803,3.26896 0.99906,2.05179 0.49826,-1.00903 0.55521,-2.94816 0.12806,-4.35897 -0.42563,-1.40578 -0.27194,-1.75479 0.69946,-1.58835 0.3393,0.0581 0.60085,-0.0869 0.89076,-0.49407 0.29081,-0.40842 0.82707,-0.70481 1.84015,-1.0171 1.98441,-0.6117 3.11836,-0.69984 6.28169,-0.48827 3.52341,0.23565 4.09017,0.49016 5.09572,2.28825 0.40685,0.72751 0.82696,1.37667 0.93358,1.44256 0.35134,0.21714 0.20321,-2.22409 -0.24038,-3.96147 -0.49759,-1.94886 -0.5661,-3.4802 -0.1879,-4.19996 0.50462,-0.96035 2.63091,-3.52376 3.11076,-3.75027 0.26652,-0.12581 0.67137,-0.22874 0.89966,-0.22874 0.4442,0 1.17874,1.00917 1.3819,1.89858 0.23019,1.00772 0.82123,2.31839 1.01651,2.25417 0.29446,-0.0969 0.71861,-1.412 0.73682,-2.28468 0.0215,-1.0315 -0.69191,-3.26771 -1.34958,-4.23011 -0.29313,-0.42894 -0.53296,-0.99228 -0.53296,-1.25186 0,-0.92034 0.85119,-2.25853 1.92922,-3.03303 1.26153,-0.906315 1.64392,-1.061995 3.62235,-1.474747 1.94421,-0.405606 3.75379,-0.398847 7.42211,0.02767 1.62435,0.188875 3.5704,0.402293 4.32456,0.474253 1.46461,0.139748 1.40402,0.0715 1.28661,1.449304 -0.0489,0.57309 -0.0523,0.57437 -0.27836,0.10548 -0.20021,-0.41514 -0.39017,-0.47476 -1.51513,-0.47551 -0.70743,-3.5e-4 -2.18805,-0.14861 -3.29029,-0.32922 -1.6581,-0.271687 -2.36272,-0.287262 -4.08159,-0.09019 -1.14264,0.131 -2.12919,0.18652 -2.19234,0.12338 -0.0631,-0.06313 0.009,-0.263538 0.15945,-0.445295 0.49205,-0.592889 -0.0247,-0.790902 -1.40032,-0.536604 -1.03209,0.190791 -1.39323,0.382994 -2.1596,1.149379 -1.03795,1.03795 -1.25542,1.75955 -1.3105,4.34849 -0.0185,0.87019 -0.0799,1.3923 -0.13644,1.16025 -0.0565,-0.23205 -0.22096,-0.5643 -0.36538,-0.73834 -0.14441,-0.17403 -0.3215,-0.48256 -0.3935,-0.6856 -0.15001,-0.42298 -0.56653,-0.50072 -0.56516,-0.10548 3.6e-4,0.14502 0.23583,0.9282 0.52295,1.74037 0.31159,0.88144 0.5238,1.95048 0.52645,2.65209 0.005,1.30371 -0.52558,3.12293 -0.95922,3.28934 -0.15401,0.059 -0.39558,0.64504 -0.53683,1.3021 -0.44393,2.0649 -0.97939,2.13853 -1.0173,0.13987 -0.0255,-1.34516 -0.42317,-2.47827 -1.12901,-3.21706 -0.76149,-0.79702 -1.42415,-0.87203 -2.4074,-0.27252 -0.97383,0.59379 -1.22237,1.67895 -0.91654,4.00167 0.66287,5.03429 0.69892,5.58917 0.4429,6.81856 -0.13892,0.66715 -0.33713,1.21299 -0.44045,1.21299 -0.10333,0 -0.29447,-0.40344 -0.42476,-0.89655 -0.53664,-2.031 -2.39635,-4.04204 -4.48708,-4.85221 -1.59395,-0.61766 -4.79378,-0.75107 -6.26824,-0.26132 -1.25665,0.41739 -2.3946,1.42708 -2.85782,2.53575 -0.19278,0.46137 -0.45011,0.73193 -0.69616,0.73193 -0.34428,0 -0.40241,0.23018 -0.49282,1.95132 -0.0719,1.36816 -0.22888,2.20351 -0.52537,2.79514 -0.23257,0.46411 -0.59411,1.48798 -0.80341,2.27528 l -0.38054,1.43147 -0.55832,-0.53491 c -0.70832,-0.67861 -1.14071,-0.67789 -1.45067,0.003 -0.62132,1.36365 0.0322,4.39663 1.90759,8.85335 1.11258,2.64392 1.64915,4.79623 1.25625,5.03906 -0.26827,0.1658 -0.79334,-0.47643 -1.28297,-1.56923 -0.38788,-0.86571 -1.77866,-2.46843 -3.30102,-3.80408 -0.33978,-0.2981 -1.43837,-1.2638 -2.44132,-2.14601 -1.53554,-1.35068 -1.9783,-1.62722 -2.80343,-1.75095 -1.81325,-0.27192 -2.20144,0.61964 -2.37879,5.46338 -0.13389,3.65676 0.0665,5.64109 0.90861,8.9959 0.27666,1.10223 0.50389,2.35384 0.50494,2.78135 0.003,0.97421 0.5095,3.4161 0.96157,4.6305 0.99252,2.6662 1.19331,2.99281 3.48395,5.66731 1.73166,2.02185 2.85988,3.74209 3.38968,5.16837 0.25859,0.69615 0.6263,1.50305 0.81712,1.79311 0.19085,0.29007 0.47598,0.85036 0.63365,1.24509 0.62493,1.56455 2.69808,3.41373 5.11017,4.55814 0.61101,0.28988 1.44317,0.77308 1.84926,1.07377 0.63508,0.47024 0.88981,0.53161 1.82142,0.43883 0.66091,-0.0658 1.17527,-0.0157 1.31958,0.12864 0.17469,0.17469 0.53294,0.13573 1.37084,-0.14908 1.54568,-0.5254 1.75434,-0.39477 0.98789,0.61842 -0.34983,0.46243 -0.63869,0.90714 -0.64192,0.98824 -0.008,0.18947 1.47713,-0.42069 1.89272,-0.77784 0.17404,-0.14958 0.62495,-0.33753 1.00203,-0.41767 0.58663,-0.12468 0.6856,-0.0871 0.6856,0.2606 0,0.22346 -0.33225,0.74842 -0.73833,1.16655 -1.34372,1.38358 -0.73097,1.86958 1.11692,0.88587 1.10913,-0.59043 1.34848,-0.41599 0.69274,0.5049 -0.54065,0.75928 -0.54089,0.79741 -0.006,1.08355 0.5853,0.31324 1.6585,-0.0528 2.34993,-0.80149 0.81279,-0.88008 0.85142,-1.22209 0.22525,-1.99347 -0.53364,-0.65737 -0.53579,-0.66918 -0.0439,-0.24048 0.2845,0.24796 0.91382,0.64982 1.39848,0.89302 1.69343,0.84973 1.30492,1.97377 -1.07671,3.11514 -1.43561,0.688 -1.55671,0.70891 -4.01764,0.69385 -1.59239,-0.01 -2.85166,-0.12543 -3.38121,-0.31063 z m -23.58823,-36.84135 c -0.0674,-0.16829 -0.11733,-0.1183 -0.12745,0.12745 -0.009,0.22239 0.0407,0.34698 0.1108,0.27688 0.0701,-0.0701 0.0776,-0.25205 0.0166,-0.40433 z m 85.28119,36.61084 c -0.23681,-0.62286 -0.0733,-0.97213 0.23032,-0.49202 0.21111,0.33384 0.27384,1.04866 0.092,1.04866 -0.0609,0 -0.20593,-0.25049 -0.32233,-0.55664 z m 8.92052,0.30316 c 0.0465,-0.13941 0.38994,-0.4241 0.76324,-0.63265 0.66759,-0.37296 0.67507,-0.37234 0.45564,0.0377 -0.33296,0.62215 -1.40185,1.14391 -1.21888,0.59498 z m -31.05958,-0.26146 c 0,-0.16718 0.0861,-0.35717 0.19128,-0.4222 0.10521,-0.065 0.1416,0.0718 0.0809,0.30399 -0.12881,0.49257 -0.27215,0.55484 -0.27215,0.11821 z m 0.48632,-0.90899 c 0.0491,-0.087 0.42283,-0.87761 0.83047,-1.75686 0.84482,-1.8222 2.08056,-3.52499 3.99952,-5.51117 1.36424,-1.41203 3.96897,-3.54338 4.33038,-3.54338 0.11151,0 0.37156,-0.18651 0.57787,-0.41449 0.20632,-0.22797 0.90927,-0.56849 1.56212,-0.7567 0.65284,-0.18822 1.47179,-0.46521 1.81986,-0.61555 0.95228,-0.41129 1.73754,-0.67662 3.48075,-1.17614 0.87018,-0.24934 2.00933,-0.67661 2.53144,-0.9495 0.52212,-0.27289 1.32554,-0.647 1.78539,-0.83137 0.88509,-0.35487 1.58988,-0.89064 1.58988,-1.20859 0,-0.27112 -1.72863,0.011 -3.53465,0.57679 -1.56215,0.48942 -2.12853,0.39598 -1.2689,-0.20935 0.26345,-0.1855 0.81124,-0.57102 1.21733,-0.85669 0.40608,-0.28568 0.99879,-0.68565 1.31713,-0.88883 0.63772,-0.40702 0.7714,-0.89679 0.24475,-0.89679 -0.78321,0 -2.84008,0.74582 -4.43115,1.60671 -2.77539,1.50173 -2.98384,1.32579 -2.75065,-2.32175 0.19934,-3.11803 1.2257,-6.6407 2.79297,-9.58593 0.45259,-0.85051 1.03256,-1.94221 1.28884,-2.42599 0.84189,-1.58927 0.53108,-1.89309 -0.59962,-0.58609 -1.39788,1.61582 -1.63901,1.93991 -2.29062,3.07883 -0.66848,1.16839 -0.98787,1.51306 -1.20285,1.29808 -0.19539,-0.1954 0.31038,-3.1036 0.77556,-4.45945 0.46689,-1.36082 0.43529,-0.97463 -0.0863,1.05478 -0.17893,0.69615 -0.32257,1.59798 -0.31921,2.00406 0.005,0.70327 0.021,0.7183 0.32187,0.31643 0.38995,-0.52101 1.15901,-1.62731 1.90643,-2.7424 1.19202,-1.77843 4.3254,-4.78997 4.64804,-4.46732 0.0603,0.0603 -0.0886,0.40184 -0.33088,0.75903 -0.24226,0.3572 -0.63035,0.9304 -0.8624,1.27377 -0.23204,0.34338 -0.4219,0.71147 -0.4219,0.81799 0,0.10651 -0.14933,0.3176 -0.33185,0.46907 -0.18252,0.15148 -0.52549,0.66148 -0.76215,1.13335 -0.23666,0.47185 -0.59252,1.04778 -0.79079,1.27984 -0.73692,0.86245 -2.16177,4.5753 -2.45937,6.40855 -0.88659,5.46159 0.36363,6.96538 4.22051,5.07648 1.66389,-0.81489 2.86605,-1.03354 2.86605,-0.5213 0,0.3425 -0.78969,1.21853 -1.86443,2.0683 -0.26071,0.20614 -0.42603,0.45243 -0.36739,0.54732 0.144,0.23299 2.61785,-0.15528 3.32885,-0.52245 0.65736,-0.33948 1.43442,-0.38816 1.43442,-0.0899 0,0.31649 -2.18514,1.85524 -3.20244,2.25512 -0.50114,0.19699 -1.10131,0.47919 -1.3337,0.62712 -0.2324,0.14793 -1.51394,0.64959 -2.84789,1.11481 -3.05728,1.06625 -4.75018,1.7666 -5.22132,2.16003 -0.20258,0.16917 -0.62142,0.4152 -0.93078,0.54674 -1.04825,0.44574 -4.73845,3.34545 -6.27698,4.93236 -1.8773,1.93635 -2.98721,3.44313 -3.63,4.92798 -0.2751,0.63549 -0.57698,1.15705 -0.67085,1.15904 -0.0939,0.002 -0.13048,-0.0676 -0.0814,-0.15461 z m 7.10803,-0.34334 c 0,-0.0438 0.16612,-0.20993 0.36917,-0.36918 0.33459,-0.2624 0.34205,-0.25494 0.0796,0.0797 -0.27559,0.35139 -0.44882,0.46314 -0.44882,0.28953 z m 0.84382,-0.63287 c 0,-0.0438 0.16612,-0.20993 0.36917,-0.36917 0.33458,-0.2624 0.34204,-0.25493 0.0796,0.0796 -0.27558,0.35141 -0.44881,0.46315 -0.44881,0.28953 z m 12.10981,-0.395 -0.40186,-0.47465 0.47465,0.40187 c 0.26105,0.22102 0.47465,0.43461 0.47465,0.47465 0,0.16881 -0.16978,0.0442 -0.54744,-0.40187 z m -43.0146,-0.16566 c -2.52193,-0.21025 -5.73118,-1.43312 -5.93952,-2.26322 -0.14019,-0.55855 0.32097,-1.10459 0.93288,-1.10459 0.16063,0 0.97312,-0.39099 1.80553,-0.86886 1.66837,-0.95777 5.20518,-4.41469 5.20518,-5.08762 0,-0.33577 -0.0627,-0.35343 -0.47385,-0.13341 -0.26061,0.13948 -1.62868,1.27565 -3.04016,2.52481 -1.89583,1.67783 -2.80543,2.33815 -3.48154,2.5274 -0.50337,0.14089 -1.07284,0.432 -1.26547,0.64692 -0.50002,0.55784 -1.99871,0.54382 -2.17778,-0.0204 -0.0718,-0.22611 -0.30672,-0.46705 -0.52212,-0.53541 -0.98119,-0.31143 -0.53164,-1.62554 0.67492,-1.97289 2.07456,-0.59724 6.8856,-3.13726 7.15381,-3.7769 0.0404,-0.0962 0.38188,-0.39156 0.75896,-0.65633 0.74242,-0.52128 0.96366,-1.0634 0.25232,-0.61829 -0.74288,0.46485 -2.62891,1.48466 -5.29069,2.8608 -2.34029,1.20992 -3.28171,1.81059 -4.20858,2.68528 -0.97659,0.92163 -3.16858,-0.15234 -6.00475,-2.94204 -1.77172,-1.7427 -2.59464,-2.76554 -3.46745,-4.30985 -0.17237,-0.305 -0.55798,-0.98171 -0.8569,-1.50382 -0.29893,-0.52212 -0.8045,-1.66127 -1.1235,-2.53145 -0.31899,-0.87019 -0.71216,-1.7857 -0.87371,-2.03449 -0.16153,-0.24878 -0.49604,-1.05568 -0.74333,-1.79311 -0.24729,-0.73742 -0.61968,-1.62556 -0.82754,-1.97363 -0.20786,-0.34808 -0.57375,-1.20245 -0.81311,-1.89859 -0.66677,-1.9393 -2.13233,-4.95744 -2.40726,-4.95744 -0.26926,0 -0.18482,0.7408 0.18341,1.60914 0.19054,0.44926 0.51388,1.43387 0.71856,2.18803 0.20469,0.75416 0.76848,2.41543 1.25288,3.6917 0.48439,1.27628 1.11597,3.03246 1.40348,3.90266 0.28752,0.87018 0.64563,1.77201 0.7958,2.00405 0.15017,0.23206 0.5745,1.35057 0.94296,2.48558 0.36847,1.13502 0.95195,2.522 1.29663,3.08217 0.34468,0.56017 0.62669,1.12253 0.62669,1.24968 0,0.32874 4.13793,4.44949 5.27386,5.25195 0.52211,0.36884 1.54098,0.97797 2.26413,1.35362 1.53674,0.79828 1.62266,1.04032 0.13461,0.37918 -0.56515,-0.25111 -1.3598,-0.59814 -1.76588,-0.77121 -1.45763,-0.62123 -2.63238,-1.47284 -3.90569,-2.83134 -0.5818,-0.62073 -1.46602,-1.4068 -1.96493,-1.74684 -3.56555,-2.43006 -4.62035,-4.80214 -5.21273,-11.72257 -0.0764,-0.89286 -0.47493,-2.32789 -1.14234,-4.11361 -1.11694,-2.9885 -2.66168,-7.79079 -2.88393,-8.96554 l -0.13969,-0.73835 0.72702,0.73835 c 0.97765,0.99287 1.24021,1.42997 3.35815,5.59028 2.91903,5.73395 4.22837,8.19144 4.65147,8.7303 0.21724,0.27671 0.395,0.60326 0.395,0.72566 0,0.41477 2.29895,4.12603 4.40084,7.10439 1.45011,2.0548 4.54964,4.16034 5.73963,3.89898 0.33735,-0.0741 0.66201,-0.21344 0.72148,-0.30967 0.099,-0.16015 0.85027,-0.55853 3.79936,-2.01462 0.58012,-0.28645 1.2921,-0.65986 1.58215,-0.82984 0.29007,-0.16996 1.02564,-0.56064 1.63461,-0.86816 1.71175,-0.86439 2.30654,-1.67546 2.49137,-3.3972 0.19268,-1.79496 -0.19331,-4.85504 -0.7469,-5.92131 -0.22556,-0.43445 -0.56593,-1.40695 -0.75637,-2.16111 -0.19044,-0.75416 -0.57017,-1.79838 -0.84382,-2.32049 -0.27366,-0.52212 -0.74872,-1.6138 -1.05569,-2.42598 -0.30695,-0.81217 -1.0699,-2.55016 -1.69542,-3.86221 -0.62552,-1.31202 -1.13731,-2.44251 -1.13731,-2.51218 0,-0.0697 -0.32377,-0.79984 -0.71948,-1.62261 -0.39571,-0.82276 -0.9238,-1.92311 -1.17355,-2.44523 -0.50723,-1.0604 -0.68651,-1.39068 -3.03134,-5.58443 -1.15572,-2.06702 -2.07795,-3.41276 -3.05883,-4.46355 -3.48082,-3.7289 -3.88522,-4.35182 -2.43071,-3.74409 0.42166,0.17619 1.15737,0.603 1.63489,0.94847 2.71618,1.96504 3.96027,2.63543 4.14206,2.23201 0.0626,-0.1389 0.0515,-2.10367 -0.0247,-4.36616 -0.20274,-6.02063 -0.19437,-9.67384 0.0211,-9.1765 0.1005,0.23205 0.48234,1.2242 0.84855,2.20478 0.73164,1.95907 2.19062,4.98418 2.66174,5.51901 0.37104,0.42119 1.50946,3.06355 3.44337,7.9923 0.25038,0.63813 0.8833,2.10954 1.40648,3.26979 1.7067,3.78493 1.96188,4.41326 2.31328,5.69576 0.19075,0.69615 0.41896,1.36065 0.50714,1.47668 0.16304,0.21449 1.18586,2.89488 2.41498,6.32862 0.37379,1.04423 1.00375,2.49647 1.39992,3.22721 1.20954,2.23101 1.76213,3.30932 2.05956,4.01891 0.15647,0.37329 0.59486,1.0078 0.97419,1.41002 0.6265,0.66428 0.79738,0.73132 1.86407,0.73132 0.64589,0 1.42636,-0.0958 1.73439,-0.21293 0.53224,-0.20236 3.07867,-2.24151 3.23121,-2.58751 0.17618,-0.39966 3.21536,-2.18257 4.4084,-2.58615 0.72389,-0.24488 1.38049,-0.50955 1.45911,-0.58816 0.21313,-0.21315 1.33832,-0.17274 1.33832,0.0481 0,0.10504 -0.68167,0.69835 -1.51482,1.31847 -1.57614,1.17312 -1.87215,1.38284 -3.29373,2.33362 -0.47142,0.31529 -1.49113,1.16633 -2.26601,1.8912 -1.07594,1.00649 -1.56009,1.31967 -2.04884,1.32531 -0.7599,0.009 -1.41449,0.75945 -1.48375,1.70155 -0.0415,0.56426 0.0167,0.62697 0.58683,0.63291 0.59168,0.006 0.63708,0.0644 0.69772,0.89656 0.0832,1.14147 0.59924,1.1927 1.44378,0.14331 0.81331,-1.01059 2.62347,-2.83956 2.81033,-2.83956 0.0831,0 0.33042,-0.19809 0.54953,-0.4402 0.41337,-0.45678 2.12081,-1.66935 2.35064,-1.66935 0.0721,0 0.32094,-0.16613 0.55307,-0.36917 0.23211,-0.20303 0.35028,-0.24666 0.26257,-0.0969 -0.0877,0.14974 -0.55494,0.52117 -1.0383,0.82541 -2.36637,1.48949 -5.34517,4.42116 -4.9221,4.84423 0.14307,0.14307 0.95333,-0.30095 1.75666,-0.96265 0.3667,-0.30205 1.44514,-1.11633 2.39655,-1.80951 2.14953,-1.56611 4.84095,-4.15635 4.45303,-4.28566 -0.15378,-0.0512 -0.53138,0.0922 -0.83911,0.31886 -0.30774,0.22663 -0.79686,0.52436 -1.08692,0.66162 -0.44209,0.20918 -0.46311,0.2062 -0.13004,-0.0185 0.21855,-0.1474 0.85653,-0.62398 1.41775,-1.05908 1.07252,-0.83151 1.45469,-0.96853 1.45469,-0.52159 0,0.53107 -1.36196,2.05167 -3.39763,3.79338 -3.08331,2.63807 -5.25149,4.75632 -5.25149,5.13059 0,0.52265 1.0562,0.90173 3.38907,1.21634 3.937,0.53096 4.70642,0.5701 6.87951,0.3499 1.78314,-0.18069 2.30769,-0.33065 3.75988,-1.0749 2.09738,-1.07494 3.35604,-2.37892 3.70656,-3.84008 0.45728,-1.90614 0.0501,-3.16094 -1.79404,-5.52829 -0.63266,-0.81217 -1.39484,-1.80893 -1.69373,-2.21502 -0.29888,-0.40608 -0.87111,-1.16551 -1.27163,-1.68763 -0.40051,-0.52211 -0.92011,-1.30019 -1.15466,-1.72906 -0.23456,-0.42887 -0.55458,-0.85605 -0.71117,-0.94929 -0.15659,-0.0932 -0.45933,-0.45432 -0.67275,-0.80239 -0.21343,-0.34808 -0.56168,-0.82273 -0.77388,-1.05478 -0.21222,-0.23204 -0.81177,-1.01521 -1.33236,-1.74037 l -0.94653,-1.31846 h 0.65927 0.65927 l -0.0982,-1.02153 c -0.12581,-1.30926 -1.65326,-4.50761 -2.31654,-4.85065 -0.26778,-0.13848 -0.34448,-0.2092 -0.17044,-0.15714 3.49297,1.04476 3.53612,1.07727 4.08193,3.07597 0.17426,0.63813 0.7398,2.17617 1.25674,3.41787 0.51695,1.24169 0.89069,2.30684 0.83053,2.367 -0.0602,0.0602 -0.38846,-0.0893 -0.72957,-0.33224 -0.42873,-0.30528 -0.6878,-0.37399 -0.83923,-0.22256 -0.23412,0.23412 0.27558,1.02596 1.79338,2.78618 0.45021,0.52211 1.1002,1.28155 1.44444,1.68763 0.99549,1.17438 2.13589,2.4862 2.73862,3.15026 0.30608,0.33723 0.8282,0.97673 1.16024,1.42111 0.33205,0.44438 0.73803,0.91305 0.90217,1.04149 0.23957,0.18747 0.302,1.12036 0.31648,4.73015 l 0.0181,4.49663 -0.73838,0.71337 c -0.40611,0.39235 -1.08794,0.89671 -1.51516,1.1208 -0.42722,0.22409 -0.83711,0.5051 -0.91087,0.62443 -0.0738,0.11934 -0.51165,0.4096 -0.97311,0.64501 -0.46145,0.23542 -1.19071,0.73245 -1.62057,1.1045 -0.79333,0.68663 -1.25634,0.98759 -2.56656,1.6683 -0.92923,0.48277 -5.32256,0.54029 -6.77382,0.0887 -0.51378,-0.15987 -1.64611,-0.5091 -2.51629,-0.77606 -1.57436,-0.48299 -2.89377,-1.15638 -3.9707,-2.02657 -0.49153,-0.39716 -0.56481,-0.61047 -0.56481,-1.6441 0,-1.04925 -0.0543,-1.20137 -0.46599,-1.30469 -0.7604,-0.19084 -0.95942,-0.58396 -0.72515,-1.43238 l 0.20785,-0.75273 h -0.70938 c -0.89694,0 -1.39786,-0.63258 -1.217,-1.53686 0.12489,-0.62444 0.11774,-0.63013 -0.61824,-0.49206 -0.99925,0.18747 -1.65369,-0.0962 -2.61254,-1.13258 -0.83056,-0.89768 -0.94854,-1.07704 -2.73856,-4.16359 -1.09663,-1.89093 -3.03989,-5.9753 -3.03989,-6.38929 0,-0.12625 -0.15564,-0.53052 -0.34586,-0.89836 -0.39397,-0.76184 -1.45996,-3.65801 -2.5384,-6.89651 -0.40422,-1.21382 -0.84193,-2.40045 -0.97269,-2.63692 -0.13077,-0.23649 -0.53958,-1.14195 -0.90846,-2.01214 -0.36888,-0.87018 -0.97203,-2.29394 -1.34032,-3.16392 -0.36829,-0.86998 -0.83644,-1.7718 -1.04033,-2.00407 -0.43945,-0.50059 -1.58565,-2.99685 -2.09274,-4.55766 -0.55985,-1.72326 -0.887,-1.58504 -0.887,0.37474 0,0.90963 0.0879,1.96049 0.19541,2.33523 0.23159,0.80749 -0.0469,1.09776 -0.58559,0.61029 -0.76696,-0.69407 -2.98973,-1.30497 -2.98283,-0.81978 0.003,0.19363 1.36079,1.62711 3.1477,3.32252 1.3114,1.24426 1.94435,2.28754 2.62368,4.32456 0.17412,0.52212 0.50202,1.32901 0.72866,1.79311 0.22664,0.4641 0.56554,1.29944 0.75311,1.8563 0.18757,0.55688 0.54214,1.40667 0.78792,1.88844 0.24578,0.48178 0.61532,1.35518 0.82118,1.94088 0.53465,1.52106 2.17473,5.12562 4.27594,9.3976 0.99868,2.03044 1.92897,4.15113 2.06731,4.71266 0.31501,1.27869 0.12043,4.10958 -0.34424,5.00814 -0.45429,0.87852 -0.25528,0.99783 0.54341,0.32577 0.78756,-0.66268 1.32306,-0.69998 1.89132,-0.13172 0.50269,0.5027 0.54201,1.41375 0.10602,2.4572 -0.31217,0.7471 -0.31029,0.75422 0.15821,0.60214 0.26076,-0.0846 0.82965,-0.20049 1.26421,-0.25748 0.85456,-0.11204 0.80467,-0.15036 3.0914,2.37415 1.59374,1.75944 1.79422,2.23355 1.49093,3.52609 -0.1429,0.609 -0.33846,1.26015 -0.43457,1.44702 -0.39421,0.7664 -1.85073,1.99857 -3.02898,2.56243 -1.0909,0.52205 -3.53087,1.03942 -4.54581,0.96388 -0.17404,-0.013 -1.17079,-0.0948 -2.21502,-0.18182 z m 2.42598,-1.66313 c 1.98142,-0.32694 3.61541,-1.05168 4.50663,-1.99885 1.20255,-1.27805 1.42773,-1.69286 1.46494,-2.69871 0.0643,-1.73901 -0.84109,-2.87994 -2.53618,-3.19586 -1.35154,-0.25187 -3.74707,1.07754 -6.22675,3.45557 -0.7811,0.74908 -1.99144,1.72505 -2.68967,2.16883 -0.69822,0.44378 -1.26951,0.93252 -1.26951,1.08609 0,0.15357 0.40346,0.52247 0.89657,0.81979 0.7822,0.47163 1.13869,0.54147 2.79514,0.54758 1.04422,0.003 2.42069,-0.0791 3.05883,-0.18444 z m -3.16431,-2.29765 c 0,-0.22527 1.85507,-1.93849 2.099,-1.93849 0.10401,0 0.48075,-0.24539 0.83716,-0.54529 0.35643,-0.29992 0.75921,-0.50826 0.89506,-0.46297 0.16132,0.0537 0.11788,0.18805 -0.12523,0.38708 -0.20473,0.16761 -0.62395,0.54786 -0.93159,0.845 -0.30766,0.29714 -0.84417,0.71553 -1.19224,0.92976 -0.34807,0.21423 -0.70878,0.51696 -0.80157,0.67274 -0.18238,0.30621 -0.78059,0.39217 -0.78059,0.11217 z m -3.88782,-0.86107 c 0.47226,-0.21449 1.61114,-1.06677 2.53083,-1.89395 0.9197,-0.82718 1.73074,-1.50397 1.80232,-1.50397 0.0716,0 0.39152,-0.37715 0.71097,-0.83813 0.98564,-1.42226 0.1455,-2.04328 -1.20169,-0.88827 -1.19528,1.02475 -2.65488,1.90983 -4.94154,2.99642 -1.21585,0.57777 -2.28976,1.05048 -2.38646,1.05048 -0.29907,0 -0.41186,0.56854 -0.16229,0.8181 0.13017,0.13018 0.43127,0.23812 0.66912,0.2399 0.23786,0.002 0.57485,0.0952 0.74888,0.20772 0.48122,0.31099 1.27888,0.24362 2.22986,-0.1883 z m 20.96952,-16.86238 c 0.86713,-0.65828 1.77981,-1.33924 2.02822,-1.51328 0.24839,-0.17404 0.85846,-0.62495 1.35569,-1.00203 0.83804,-0.63554 0.86512,-0.6856 0.37078,-0.6856 -1.49399,0 -4.70608,2.20237 -6.15645,4.22118 -0.84417,1.17502 -0.7722,1.48079 0.16788,0.71324 0.36152,-0.29518 1.36676,-1.07525 2.23388,-1.73351 z m 16.14357,21.05881 c 0.21001,-0.23204 0.42929,-0.42191 0.4873,-0.42191 0.058,0 -0.0664,0.18987 -0.27634,0.42191 -0.21001,0.23205 -0.42929,0.42191 -0.48731,0.42191 -0.058,0 0.0663,-0.18986 0.27635,-0.42191 z m 10.83723,-0.58012 c -0.2624,-0.33458 -0.25494,-0.34205 0.0796,-0.0796 0.3514,0.27558 0.46315,0.44882 0.28952,0.44882 -0.0438,0 -0.20992,-0.16612 -0.36916,-0.36917 z m 9.20342,-5.7485 c -0.0717,-0.11602 -0.0298,-0.21096 0.093,-0.21096 0.12288,0 0.2234,0.0949 0.2234,0.21096 0,0.11603 -0.0418,0.21095 -0.093,0.21095 -0.0512,0 -0.15169,-0.0949 -0.22339,-0.21095 z m -59.54286,-2.79515 c 0.0477,-0.14503 0.31673,-0.29021 0.59771,-0.32263 0.49472,-0.057 0.49791,-0.0488 0.10136,0.26369 -0.49584,0.39068 -0.81725,0.41777 -0.69907,0.059 z m 38.65839,-0.15821 c 0.0717,-0.11603 0.22531,-0.21095 0.34134,-0.21095 0.11602,0 0.15228,0.0949 0.0806,0.21095 -0.0717,0.11603 -0.22531,0.21096 -0.34132,0.21096 -0.11603,0 -0.15229,-0.0949 -0.0806,-0.21096 z m -36.28411,-1.1565 c 1.37912,-0.79464 2.07022,-0.94897 1.86596,-0.41667 -0.18033,0.46991 -1.62725,1.1517 -2.43767,1.14863 -0.67561,-0.003 -0.66043,-0.022 0.57171,-0.73196 z m 38.19144,0.11588 c -0.0669,-0.10823 0.18088,-0.47951 0.55059,-0.82503 l 0.67221,-0.62825 -0.0198,-4.50155 c -0.011,-2.47585 -0.0269,-4.56958 -0.0357,-4.65272 -0.009,-0.0831 -0.44744,-0.65272 -0.97498,-1.26573 -0.52752,-0.613 -1.26322,-1.47349 -1.63489,-1.9122 -0.37166,-0.4387 -1.008,-1.16254 -1.41409,-1.60851 -1.43685,-1.57799 -3.37527,-3.93982 -3.37527,-4.11254 0,-0.0533 0.2136,-0.12735 0.47465,-0.16442 0.39075,-0.0555 0.46251,-0.17928 0.40603,-0.70027 -0.0377,-0.34808 -0.23782,-0.91765 -0.44461,-1.26573 -0.4069,-0.68491 -1.72499,-4.09036 -2.14041,-5.53003 -0.35952,-1.246 -0.87434,-1.61168 -3.0102,-2.13819 -1.02668,-0.25308 -2.26077,-0.68612 -2.74241,-0.96231 -0.48166,-0.27618 -1.10785,-0.57176 -1.39155,-0.65683 -0.2837,-0.0851 -0.96988,-0.43405 -1.52484,-0.77553 -0.55496,-0.34146 -1.12068,-0.55184 -1.25715,-0.4675 -0.1559,0.0964 -0.19184,0.0623 -0.0967,-0.0917 0.0833,-0.13477 0.0151,-0.29734 -0.15146,-0.36127 -0.53834,-0.20658 -2.37421,-2.68883 -3.06462,-4.14361 -0.92378,-1.94657 -1.12053,-3.81552 -1.23896,-11.7697 -0.10712,-7.19364 0.18265,-13.43947 0.7074,-15.24877 0.77897,-2.68567 0.63203,-3.11294 -1.05519,-3.068387 -0.59655,0.01578 -2.3515,-0.128266 -3.89987,-0.320032 -5.1836,-0.642017 -8.70274,-0.352724 -11.21843,0.922206 -1.0344,0.524222 -2.62426,2.283173 -2.94665,3.260043 -0.34832,1.0554 -1.87767,3.94337 -2.24988,4.24859 -0.1582,0.12973 -0.50021,0.52679 -0.76002,0.88236 -0.2598,0.35556 -0.85837,1.15125 -1.33016,1.76818 -0.47178,0.61694 -1.01274,1.50143 -1.20211,1.96553 l -0.34432,0.84382 -0.0109,-0.727 c -0.006,-0.42281 0.19532,-1.04069 0.48191,-1.47668 2.55362,-3.8848 3.13079,-4.89728 4.05297,-7.10976 0.67004,-1.60754 1.91911,-3.07601 3.52566,-4.144914 2.25271,-1.49884 3.80535,-1.631817 12.46569,-1.067647 2.66389,0.173539 4.74713,-0.167798 5.42447,-0.888782 0.26468,-0.281746 0.60681,-0.512256 0.76029,-0.512256 0.15348,0 0.66155,-0.345564 1.12905,-0.767924 0.94991,-0.85818 1.3761,-0.803402 0.66741,0.08577 -1.226,1.538241 -2.15499,4.13177 -2.80476,7.830213 -0.3699,2.10539 -0.44677,3.68279 -0.54604,11.20495 -0.15126,11.46135 0.0626,12.8009 2.46904,15.46317 1.88501,2.08542 5.17884,3.95201 8.64755,4.9005 1.10223,0.30141 2.38378,0.6545 2.84788,0.78466 0.4641,0.13018 2.36268,0.24151 4.21909,0.24743 3.36329,0.0107 3.38423,0.008 5.9067,-0.81224 3.03377,-0.98628 4.93234,-2.17264 6.70118,-4.18737 0.66528,-0.75777 1.20961,-1.44915 1.20961,-1.53639 0,-0.0872 0.22865,-0.4584 0.50811,-0.8248 1.11632,-1.46356 1.24265,-2.06034 1.34105,-6.33515 0.0712,-3.09116 0.0103,-4.53901 -0.26596,-6.32862 -0.19702,-1.27626 -0.422,-4.40894 -0.49994,-6.96148 -0.0779,-2.55255 -0.21098,-4.75027 -0.29562,-4.88383 -0.0847,-0.13356 -0.29048,-0.95666 -0.45741,-1.82913 -0.30802,-1.60987 -1.91296,-5.19516 -2.90031,-6.479019 -1.15858,-1.506501 -2.16637,-2.650251 -2.57784,-2.925629 -0.2433,-0.162824 -0.68613,-0.519989 -0.98404,-0.7937 -0.58325,-0.535868 -3.43888,-1.816269 -5.15409,-2.310991 -0.58013,-0.167329 -2.25594,-0.362634 -3.72405,-0.434016 -2.87154,-0.13962 -4.5127,0.165829 -5.27999,0.982698 -0.1952,0.207819 -0.90717,0.539477 -1.58215,0.737023 -0.67498,0.197541 -1.48344,0.495679 -1.79656,0.662527 -0.31314,0.166848 -0.97765,0.440015 -1.47669,0.607041 l -0.90735,0.303687 0.55947,-0.44048 c 0.30771,-0.24226 1.11461,-0.626984 1.79311,-0.854941 0.6785,-0.227951 1.37604,-0.53664 1.55008,-0.68597 0.17403,-0.149336 1.24111,-0.6632 2.37128,-1.141925 1.93961,-0.821599 2.17034,-0.870232 4.11361,-0.867123 1.99151,0.0031 2.69161,0.121825 5.86432,0.99374 3.09814,0.851428 6.48275,3.538054 8.32689,6.609703 1.79658,2.992445 2.54622,4.685435 2.98356,6.738145 0.39063,1.83344 1.4284,4.84145 1.85328,5.37187 0.60635,0.75692 2.10852,4.04092 2.41578,5.28131 0.2012,0.81218 0.50609,1.69287 0.67754,1.9571 0.17145,0.26424 0.5086,1.1186 0.74922,1.8986 0.24061,0.77999 0.70298,1.94469 1.02748,2.58822 0.34216,0.67854 0.73077,1.98567 0.92508,3.11166 0.37016,2.14492 0.41196,3.02141 0.0976,2.0469 -0.11228,-0.34807 -0.33465,-0.91764 -0.49418,-1.26572 -0.15952,-0.34808 -0.59461,-1.58215 -0.96687,-2.74241 -0.37225,-1.16024 -0.8009,-2.25279 -0.95255,-2.42788 -0.15165,-0.1751 -0.48251,-1.07692 -0.73525,-2.00406 -0.25275,-0.92716 -0.55217,-1.86179 -0.66541,-2.07699 -0.11323,-0.2152 -0.42081,-0.98383 -0.68351,-1.70808 -0.5297,-1.4604 -2.11913,-3.77231 -2.50573,-3.64474 -0.33649,0.11102 -0.44193,2.58848 -0.15194,3.56987 0.78629,2.66102 1.24283,8.80113 0.891,11.98359 -0.20824,1.88354 -0.14431,2.06457 0.82078,2.32444 1.16048,0.31249 1.0843,0.71508 -0.10166,0.53723 -0.87717,-0.13153 -0.96033,-0.0995 -1.44297,0.55617 -0.28167,0.38267 -0.6433,1.02732 -0.80361,1.43255 -0.56402,1.42578 -2.97278,3.59732 -5.26076,4.74268 -0.63815,0.31946 -1.30266,0.70143 -1.47669,0.84884 -0.44721,0.37878 -5.28283,1.60068 -7.17243,1.81238 -0.87019,0.0975 -1.91442,0.22163 -2.3205,0.27587 -0.40609,0.0543 -0.81384,0.10502 -0.90611,0.11284 -0.23934,0.0203 0.0573,1.47548 0.46015,2.25698 1.52772,2.96402 1.96696,3.90092 1.87295,3.99493 -0.0598,0.0598 -0.34342,-0.17009 -0.63022,-0.51094 -0.54059,-0.64245 -1.85154,-1.44213 -1.85154,-1.12944 0,0.36367 0.68643,2.48775 0.96854,2.99707 0.16067,0.29005 0.48152,1.0495 0.71301,1.68763 0.28691,0.7909 0.78488,1.52958 1.56436,2.32049 0.62891,0.63813 1.46114,1.62131 1.8494,2.18483 0.38826,0.56351 0.79787,1.01745 0.91023,1.00876 0.11238,-0.009 0.37337,-1.17424 0.57999,-2.59008 0.43206,-2.96057 1.66922,-6.94666 2.44617,-7.88143 l 0.52601,-0.63286 -0.15385,0.84382 c -0.0846,0.4641 -0.37889,1.50832 -0.65395,2.32049 -0.75263,2.22231 -1.46498,6.56632 -1.15819,7.06273 0.16787,0.27162 1.22317,-1.17067 2.10063,-2.87098 0.44755,-0.86725 1.19744,-1.70496 1.37093,-1.53147 0.0501,0.0501 -0.33021,0.93739 -0.84511,1.97177 -0.5149,1.03438 -0.9362,2.00825 -0.9362,2.16416 0,0.15591 -0.24923,0.87392 -0.55386,1.59558 -0.82562,1.95591 -1.58927,6.36167 -1.41942,8.18914 0.0751,0.80793 0.21428,1.51702 0.30933,1.57577 0.095,0.0587 0.53206,-0.0929 0.97112,-0.33704 0.43908,-0.24411 1.55775,-0.87009 2.48595,-1.39107 1.91394,-1.07427 2.93414,-1.39371 2.72699,-0.8539 -0.0706,0.18412 -0.57073,0.59179 -1.11129,0.90597 -1.12881,0.65605 -2.82902,1.99508 -2.69869,2.12541 0.0484,0.0484 1.2562,-0.20235 2.68404,-0.55719 1.42784,-0.35484 2.64847,-0.64397 2.71253,-0.64252 0.4502,0.0103 -2.70312,1.55317 -3.89168,1.90425 -0.81217,0.23991 -2.44194,0.76336 -3.6217,1.16324 -2.41029,0.81695 -2.32169,0.79806 -2.48722,0.53024 z m 24.67289,-0.22511 c -0.0717,-0.11602 -0.0354,-0.21094 0.0806,-0.21094 0.11602,0 0.26963,0.0949 0.34133,0.21094 0.0717,0.11604 0.0355,0.21096 -0.0806,0.21096 -0.11603,0 -0.26963,-0.0949 -0.34134,-0.21096 z m 3.36793,-3.71753 c -0.21215,-2.82969 0.0155,-11.08632 0.34825,-12.63141 0.17048,-0.79157 0.27622,-2.88575 0.28227,-5.59029 0.009,-4.16397 -0.0113,-4.38472 -0.55748,-5.94486 -0.87915,-2.51161 -1.99914,-4.36082 -3.52407,-5.81857 -0.39604,-0.37859 -0.65885,-0.74957 -0.58403,-0.82438 0.26826,-0.26827 2.58119,1.59778 3.35206,2.70438 0.43249,0.62087 0.86305,1.11189 0.95682,1.09116 0.0938,-0.0207 0.18408,0.12168 0.20069,0.31644 0.0166,0.19475 0.17825,0.86891 0.35918,1.49812 0.18094,0.62921 0.43456,2.41177 0.56362,3.96124 0.20254,2.43203 0.17438,3.53029 -0.20595,8.03248 -0.24232,2.8684 -0.53394,7.43549 -0.64805,10.14908 -0.11411,2.7136 -0.24832,4.97465 -0.29822,5.02455 -0.0499,0.0499 -0.1602,-0.83567 -0.24509,-1.96794 z m -42.28896,-0.59227 c 0,-0.17408 0.28478,-0.64087 0.63286,-1.0373 0.34808,-0.39643 0.63287,-0.81206 0.63287,-0.9236 0,-0.36632 2.57599,-2.37841 3.04496,-2.37841 0.46335,0 -0.10852,0.7684 -1.41007,1.89469 -0.84118,0.7279 -1.64986,1.54628 -1.79707,1.81862 -0.35076,0.6489 -1.10355,1.07594 -1.10355,0.626 z m 42.02881,-11.08985 c 0,-0.40608 0.0434,-0.57221 0.0965,-0.36917 0.053,0.20304 0.053,0.5353 0,0.73834 -0.053,0.20305 -0.0965,0.0369 -0.0965,-0.36917 z m -28.57667,-0.4076 c -1.30198,-0.82569 -2.3455,-2.20483 -2.875,-3.79971 -0.71976,-2.16785 -0.59108,-2.2767 1.02534,-0.86744 1.18593,1.03395 1.30455,0.78668 0.47498,-0.99018 -0.91526,-1.9604 -1.00546,-3.27929 -0.31519,-4.60877 0.60555,-1.16631 1.04938,-1.41415 3.90807,-2.18222 1.34993,-0.3627 2.79056,-0.7999 3.20141,-0.97156 0.93697,-0.3915 0.98672,-0.21338 0.0613,0.21977 -1.71732,0.80388 -3.20071,2.36766 -3.47408,3.66235 -0.0893,0.42287 -0.15853,1.33843 -0.15388,2.03458 0.0174,2.59396 0.59977,3.18313 1.29119,1.30617 0.56946,-1.54589 1.86628,-3.48768 2.8977,-4.3389 0.81786,-0.67495 0.86654,-0.68874 0.93047,-0.26341 0.0611,0.40579 -1.42073,3.48986 -1.59361,3.31697 -0.04,-0.04 0.16842,-0.52604 0.46306,-1.08019 0.70678,-1.32928 0.71239,-1.68385 0.0209,-1.32061 -0.65523,0.34417 -2.17317,2.68322 -2.66053,4.09972 -0.20566,0.59779 -0.48244,1.28962 -0.61505,1.5374 -0.1326,0.24777 -0.37757,1.18261 -0.54439,2.07741 -0.44516,2.3879 -0.48541,2.5189 -0.81252,2.64443 -0.16447,0.063 -0.71806,-0.151 -1.23022,-0.47581 z m -14.71787,0.19664 c 0.17405,-0.11247 0.45883,-0.20449 0.63287,-0.20449 0.28127,0 0.28127,0.0228 0,0.20449 -0.17404,0.11247 -0.45882,0.2045 -0.63287,0.2045 -0.28126,0 -0.28126,-0.0228 0,-0.2045 z m 43.48985,-1.68763 c 0,-0.29006 0.0479,-0.40872 0.10641,-0.2637 0.0585,0.14504 0.0585,0.38236 0,0.52739 -0.0585,0.14504 -0.10641,0.0264 -0.10641,-0.26369 z m 0.19431,-1.17783 c 0.0102,-0.24575 0.0601,-0.29573 0.12745,-0.12745 0.061,0.15228 0.0535,0.33423 -0.0166,0.40433 -0.0701,0.0701 -0.11996,-0.0545 -0.1108,-0.27688 z m 0.25463,-2.30292 c 0.002,-0.58012 0.0425,-0.79241 0.091,-0.47174 0.0485,0.32066 0.0472,0.79531 -0.003,1.05477 -0.0501,0.25946 -0.0897,-0.003 -0.0882,-0.58303 z m -24.3034,-1.2833 c 0.0102,-0.24575 0.0601,-0.29573 0.12746,-0.12745 0.061,0.15228 0.0535,0.33423 -0.0166,0.40433 -0.0701,0.0701 -0.11996,-0.0545 -0.1108,-0.27688 z m 24.27637,-2.61935 c 0,-0.29006 0.0479,-0.40872 0.10641,-0.26369 0.0585,0.14503 0.0585,0.38236 0,0.52739 -0.0585,0.14502 -0.10641,0.0264 -0.10641,-0.2637 z m -92.20359,-5.18597 c 0.0102,-0.24574 0.0601,-0.29574 0.12746,-0.12745 0.061,0.15227 0.0535,0.33422 -0.0166,0.40433 -0.0701,0.0701 -0.11996,-0.0545 -0.1108,-0.27688 z m 56.94095,0.15551 c -0.5221,-0.0819 -1.07174,-0.22556 -1.22138,-0.31926 -0.14966,-0.0937 -1.05149,-0.35637 -2.00407,-0.58367 -0.95258,-0.22731 -2.42383,-0.74148 -3.26943,-1.14261 -0.84561,-0.40112 -1.59135,-0.72932 -1.65719,-0.72932 -0.0658,0 -0.40175,-0.23732 -0.74647,-0.52739 -0.34472,-0.29006 -0.73814,-0.52881 -0.87427,-0.53054 -0.29332,-0.003 -2.35551,-1.97497 -3.06592,-2.93067 -0.9488,-1.27641 -1.11784,-2.3311 -1.35446,-8.4516 -0.32636,-8.44155 0.24059,-18.81803 1.08889,-19.92878 0.0939,-0.12289 0.29694,-0.698084 0.45131,-1.278205 0.4871,-1.830474 2.01071,-4.265458 3.49791,-5.590286 0.39159,-0.34883 0.29681,-0.166371 -0.27996,0.538915 -1.14127,1.395577 -2.29085,3.712865 -2.92211,5.890306 -0.63926,2.20503 -0.48639,3.47048 0.5288,4.37756 0.35994,0.32162 0.79534,0.58474 0.96755,0.58474 0.52039,0 0.35738,0.31572 -0.53205,1.03047 -1.28543,1.03301 -1.72595,2.08055 -1.76171,4.18937 -0.0252,1.48542 0.0316,1.81774 0.34997,2.05197 0.58407,0.42951 1.93818,0.14735 3.70431,-0.7719 0.86196,-0.44864 1.44685,-0.67072 1.29978,-0.4935 -0.14708,0.17721 -0.38453,0.32222 -0.52768,0.32222 -0.14315,0 -0.70406,0.33886 -1.24648,0.75302 -1.19148,0.90978 -2.05128,2.51729 -2.0842,3.89674 -0.0268,1.12149 0.13884,1.46791 0.7017,1.46791 0.2252,0 0.40946,0.0949 0.40946,0.21095 0,0.11603 -0.0885,0.21096 -0.19674,0.21096 -0.10821,0 -0.26003,0.1994 -0.33739,0.44314 -0.20344,0.64098 -0.4234,0.26724 -0.73286,-1.24525 -0.17293,-0.84522 -0.34546,-1.25605 -0.47363,-1.12788 -0.11087,0.11089 -0.47657,1.04077 -0.81265,2.06642 -1.04315,3.18353 -0.77651,5.89393 0.90705,9.2203 0.8221,1.62429 3.08027,3.80235 5.13177,4.94972 2.50626,1.40171 7.81118,2.29193 11.4923,1.92853 4.98704,-0.49232 6.89574,-0.94262 9.05908,-2.13724 2.15861,-1.19197 3.98044,-3.51119 4.86663,-6.19526 0.15173,-0.45953 0.34028,-2.35439 0.419,-4.21078 0.14124,-3.3305 0.14357,-3.34309 0.17547,-0.94929 0.0408,3.0559 -0.25186,5.65051 -0.74388,6.59628 -0.98135,1.8864 -1.42865,2.61346 -1.93875,3.15134 -0.30339,0.31991 -0.75381,0.79693 -1.00093,1.06004 -1.35551,1.4432 -3.53892,2.75121 -5.49938,3.29448 -0.82145,0.22763 -1.71763,0.53389 -1.9915,0.68055 -0.56688,0.30357 -6.23374,0.46937 -7.77589,0.2275 z m 33.09289,-1.24544 c -0.2624,-0.33459 -0.25493,-0.34206 0.0796,-0.0796 0.20304,0.15922 0.36918,0.32535 0.36918,0.36916 0,0.17362 -0.17324,0.0618 -0.44882,-0.28952 z m -18.00967,-0.26369 c 0.21001,-0.23205 0.42929,-0.42191 0.48731,-0.42191 0.058,0 -0.0663,0.18986 -0.27636,0.42191 -0.21,0.23204 -0.42928,0.4219 -0.4873,0.4219 -0.058,0 0.0663,-0.18986 0.27635,-0.4219 z m -28.07017,-2.37324 -0.61958,-0.6856 0.68559,0.61959 c 0.63908,0.57755 0.78258,0.75161 0.61959,0.75161 -0.0363,0 -0.34482,-0.30851 -0.6856,-0.6856 z m 30.91805,-0.0269 c 0,-0.0438 0.16613,-0.20993 0.36918,-0.36917 0.33458,-0.2624 0.34203,-0.25493 0.0796,0.0797 -0.27558,0.3514 -0.44882,0.46314 -0.44882,0.28952 z m 11.88919,-1.59167 c -0.76295,-0.46522 -1.06948,-0.86013 -0.66764,-0.86013 0.15225,0 0.54562,0.28479 0.87414,0.63287 0.70052,0.74219 0.67822,0.76673 -0.2065,0.22726 z m -7.03724,-1.71146 c 0.27006,-0.18093 0.24344,-0.27322 -0.18158,-0.62963 -0.27392,-0.2297 -0.41632,-0.41446 -0.31644,-0.41061 0.28973,0.0112 1.13088,0.77644 1.13088,1.02882 0,0.12644 -0.21359,0.22843 -0.47464,0.22666 -0.38763,-0.003 -0.41664,-0.0421 -0.15822,-0.21524 z m -1.30528,-0.1366 c 0.15228,-0.061 0.33423,-0.0535 0.40433,0.0166 0.0701,0.0701 -0.0545,0.11995 -0.27688,0.11079 -0.24576,-0.0102 -0.29574,-0.0601 -0.12745,-0.12744 z m 4.86459,-0.22506 c -0.26241,-0.33458 -0.25494,-0.34204 0.0797,-0.0796 0.35139,0.27558 0.46314,0.44881 0.28952,0.44881 -0.0438,0 -0.20994,-0.16612 -0.36917,-0.36917 z m 0.17485,-0.43032 c -0.56,-0.58452 -0.56098,-0.59101 -0.14254,-0.9493 0.23172,-0.19841 0.45879,-0.36075 0.50456,-0.36075 0.0458,0 0.2288,0.42719 0.4067,0.9493 0.38803,1.1388 0.10428,1.27196 -0.76872,0.36075 z m -5.95125,-1.49463 c 0.0591,-0.39158 0.11855,-1.00863 0.13202,-1.37121 0.0166,-0.44834 0.0576,-0.52427 0.12817,-0.23732 0.057,0.23205 0.20154,0.54235 0.32108,0.68956 0.15351,0.18903 0.12395,0.37493 -0.10065,0.63287 -0.17491,0.20086 -0.3788,0.5076 -0.45309,0.68163 -0.0743,0.17405 -0.0867,-0.004 -0.0275,-0.39553 z m 3.41004,0.22071 c -0.43226,-0.47762 -0.45023,-0.87994 -0.0393,-0.87994 0.18988,0 0.26241,0.12353 0.18735,0.31911 -0.0674,0.17551 -0.005,0.46031 0.13793,0.63286 0.37303,0.44947 0.13077,0.38846 -0.28596,-0.072 z m -39.54547,-0.77447 c 0.004,-0.34808 0.0516,-0.46492 0.10506,-0.25967 0.0535,0.20525 0.0499,0.49004 -0.008,0.63286 -0.0577,0.14282 -0.10155,-0.0251 -0.0973,-0.37319 z m 36.27628,-3.05884 c 0,-0.29005 0.0479,-0.40872 0.10641,-0.26368 0.0585,0.14503 0.0585,0.38235 0,0.52738 -0.0585,0.14504 -0.10641,0.0263 -0.10641,-0.2637 z m 0.0858,-1.47667 c 0.0559,-0.52211 -0.14869,-2.61056 -0.45472,-4.64099 -0.7137,-4.73529 -0.83594,-6.11768 -0.54097,-6.11768 0.12589,0 0.33827,0.21359 0.47195,0.47465 0.13369,0.26105 0.44555,0.64048 0.69303,0.84317 l 0.44996,0.36853 -0.52739,-0.0521 c -0.47349,-0.0468 -0.53458,0.0341 -0.59775,0.79172 -0.0784,0.93941 0.33166,4.56543 0.59404,5.25366 0.0927,0.24315 0.33643,0.84709 0.54162,1.34207 0.36479,0.88003 0.36343,0.91039 -0.0614,1.37121 -0.23893,0.25917 -0.48745,0.66109 -0.55226,0.89314 -0.0648,0.23206 -0.0721,-0.005 -0.0162,-0.52738 z m -4.71986,-1.88023 c -0.38397,-0.32855 -1.001,-0.69537 -1.3712,-0.81515 -0.61484,-0.19893 -0.58822,-0.20817 0.30773,-0.10664 0.82961,0.094 1.01546,0.0464 1.20557,-0.30879 0.12361,-0.23096 0.19426,-0.45615 0.15699,-0.50041 -0.12304,-0.14614 -0.34622,-1.5289 -0.22762,-1.41031 0.2785,0.27851 0.94308,2.43992 0.94308,3.06723 0,0.83387 -0.11664,0.8424 -1.01455,0.0741 z m -32.25875,-0.44027 c 0,-0.52211 0.0411,-0.73569 0.0914,-0.47464 0.0503,0.26106 0.0503,0.68824 0,0.94929 -0.0502,0.26105 -0.0914,0.0475 -0.0914,-0.47465 z m 28.73778,-1.24497 c -0.92819,-0.20234 -2.02464,-0.48075 -2.43654,-0.61868 -1.39994,-0.46877 -4.30643,-0.89578 -6.95092,-1.02117 -2.91933,-0.13845 -7.10056,0.28194 -9.94998,1.00038 -2.87163,0.72402 -4.60585,0.47767 -4.60585,-0.65426 0,-1.43562 1.6874,-3.90785 3.03602,-4.4481 0.36062,-0.14447 0.88207,-0.43519 1.15878,-0.64606 0.64028,-0.48794 1.25697,-0.53552 0.8681,-0.067 -0.14444,0.17405 -0.42036,0.31643 -0.61316,0.31643 -0.42418,0 -2.3063,1.91126 -2.95484,3.00056 -0.29464,0.49489 -0.44308,1.04126 -0.40117,1.47669 l 0.0665,0.69114 1.59167,-0.009 c 1.52355,-0.008 2.72443,-0.20867 5.26434,-0.87837 1.55535,-0.41009 7.35543,-0.60171 8.86007,-0.29272 0.63814,0.13106 1.77729,0.38535 2.53145,0.56512 0.75417,0.17976 2.13063,0.46469 3.05884,0.63318 0.9282,0.16851 2.14711,0.3997 2.7087,0.51377 0.56159,0.11407 1.10744,0.15403 1.21299,0.0888 1.09503,-0.67678 -2.38595,-4.65835 -5.29289,-6.05407 -2.36494,-1.13547 -4.2189,-1.48504 -7.91078,-1.49157 -1.89981,-0.003 -3.69803,0.0961 -4.11361,0.22748 -0.91938,0.29071 -2.67921,0.56665 -2.51586,0.3945 0.2528,-0.2664 5.00511,-1.21852 6.62463,-1.32722 1.36364,-0.0915 2.14887,-0.008 4.04158,0.43351 2.46323,0.57369 4.60466,1.29121 5.13976,1.72216 0.17404,0.14016 0.60122,0.39916 0.9493,0.57555 1.83799,0.93144 3.80017,3.62944 3.94773,5.4282 0.0593,0.72308 0.0455,0.73672 -0.78342,0.77219 -0.4641,0.0198 -1.60326,-0.12944 -2.53146,-0.33179 z m -21.67553,0.0505 c 0.14503,-0.0585 0.38235,-0.0585 0.52738,0 0.14503,0.0585 0.0263,0.10641 -0.26369,0.10641 -0.29006,0 -0.40872,-0.0478 -0.26369,-0.10641 z m 1.89858,-0.21095 c 0.14504,-0.0585 0.38236,-0.0585 0.52738,0 0.14504,0.0585 0.0263,0.10641 -0.26368,0.10641 -0.29006,0 -0.40873,-0.0478 -0.2637,-0.10641 z m 1.05125,-0.0974 c 0.1431,-0.14417 0.31332,-0.20899 0.37828,-0.14404 0.065,0.065 -0.0522,0.18291 -0.26018,0.26213 -0.30066,0.11448 -0.32488,0.0902 -0.1181,-0.11809 z m 16.26017,0.093 c 0.15229,-0.061 0.33424,-0.0535 0.40433,0.0166 0.0701,0.0701 -0.0545,0.11996 -0.27687,0.1108 -0.24575,-0.0101 -0.29574,-0.0601 -0.12746,-0.12745 z m 8.51104,-0.2778 c 0,-0.29006 0.0479,-0.40872 0.10639,-0.26369 0.0585,0.14503 0.0585,0.38235 0,0.52739 -0.0585,0.14502 -0.10639,0.0263 -0.10639,-0.2637 z m -23.91069,-0.14411 c 0.15229,-0.061 0.33424,-0.0535 0.40434,0.0166 0.0701,0.0701 -0.0545,0.11996 -0.27688,0.1108 -0.24576,-0.0102 -0.29574,-0.0601 -0.12746,-0.12745 z m 13.92297,0 c 0.15229,-0.061 0.33424,-0.0535 0.40434,0.0166 0.0701,0.0701 -0.0545,0.11996 -0.27688,0.1108 -0.24576,-0.0102 -0.29574,-0.0601 -0.12746,-0.12745 z m -13.09233,-0.20655 c 0.14503,-0.0585 0.38236,-0.0585 0.52738,0 0.14503,0.0585 0.0263,0.1064 -0.26369,0.1064 -0.29006,0 -0.40872,-0.0479 -0.26369,-0.1064 z m 17.35098,-0.22465 c 0.88002,-0.15566 0.93122,-0.39827 0.30975,-1.46752 -0.32478,-0.55881 -0.72709,-1.25333 -0.89401,-1.54339 -0.40881,-0.71039 1.38064,1.19819 1.87895,2.00406 0.5995,0.96945 0.51139,1.1054 -0.71457,1.10264 -0.60913,-0.002 -0.87019,-0.0445 -0.58012,-0.0958 z M 201.46555,105.062 c -0.10443,-1.30093 -0.73576,-2.9144 -1.27259,-3.25227 -0.31507,-0.19831 -2.53275,-4.50768 -2.3921,-4.64832 0.22674,-0.22674 0.94954,0.23078 2.10239,1.33077 1.21281,1.15721 1.49611,1.23089 1.64313,0.4274 0.0403,-0.22006 0.0813,1.37 0.0911,3.53349 0.01,2.16348 -5.2e-4,3.93359 -0.0238,3.93359 -0.0231,0 -0.0896,-0.59609 -0.14809,-1.32466 z m 14.56485,1.18056 c 0.15228,-0.061 0.33423,-0.0535 0.40434,0.0166 0.0701,0.0701 -0.0545,0.11996 -0.27689,0.11079 -0.24575,-0.0102 -0.29573,-0.0601 -0.12745,-0.12744 z m 6.5264,0.004 c 0.14502,-0.0585 0.38234,-0.0585 0.52738,0 0.14503,0.0585 0.0264,0.10641 -0.2637,0.10641 -0.29006,0 -0.40872,-0.0479 -0.26368,-0.10641 z m 13.26904,-0.49297 c -0.0712,-0.35604 -0.37167,-1.25279 -0.66772,-1.99277 -0.49378,-1.23425 -0.52033,-1.4576 -0.32137,-2.70305 0.48163,-3.01485 -0.56935,-6.4844 -2.67951,-8.84583 -1.85954,-2.08093 -2.19979,-2.491039 -2.06679,-2.491039 0.0832,0 0.86257,0.576719 1.73197,1.281589 0.9078,0.736 1.70799,1.23275 1.87968,1.16687 0.33504,-0.12857 0.39121,-0.90506 0.11889,-1.64364 -0.099,-0.26862 -0.24154,-0.773175 -0.31667,-1.121245 l -0.1366,-0.632865 0.41691,0.738339 c 1.02279,1.811331 1.69089,5.568321 1.69722,9.544291 0.002,1.42206 0.14233,3.62421 0.31127,4.89366 0.29223,2.19598 0.31031,3.19364 0.0327,1.80569 z m -17.16879,0.27036 c 0.32066,-0.0485 0.7953,-0.0472 1.05476,0.003 0.25946,0.0501 -0.003,0.0897 -0.58302,0.0882 -0.58012,-0.001 -0.79241,-0.0425 -0.47174,-0.091 z m -11.21956,-0.3936 c 0.0102,-0.24574 0.0601,-0.29573 0.12745,-0.12745 0.061,0.15228 0.0535,0.33424 -0.0166,0.40433 -0.0701,0.0701 -0.11996,-0.0545 -0.1108,-0.27688 z m 25.52997,-0.99404 c -0.26684,-0.44433 -0.26234,-0.44883 0.1009,-0.10091 0.2091,0.20028 0.33478,0.40956 0.27929,0.46505 -0.0555,0.0555 -0.22658,-0.10836 -0.38019,-0.36414 z m -14.94216,0.1271 c 0.20524,-0.0535 0.49003,-0.0499 0.63286,0.008 0.14281,0.0578 -0.0251,0.10156 -0.37319,0.0973 -0.34807,-0.004 -0.46493,-0.0516 -0.25967,-0.10506 z m 2.10842,-0.005 c 0.32067,-0.0485 0.79532,-0.0472 1.05477,0.003 0.25946,0.0501 -0.003,0.0897 -0.58302,0.0882 -0.58013,-0.001 -0.79242,-0.0425 -0.47175,-0.091 z m -11.02525,-1.82684 c 0,-0.0438 0.16612,-0.20993 0.36917,-0.36918 0.33459,-0.26239 0.34204,-0.25493 0.0797,0.0797 -0.27559,0.3514 -0.44882,0.46315 -0.44882,0.28953 z m 14.45036,-4.06854 c -0.91011,-0.34651 -3.95061,-0.46053 -6.11767,-0.22941 -1.17327,0.12512 -1.19885,0.11925 -0.35018,-0.0804 0.50355,-0.11845 0.86293,-0.26798 0.79863,-0.33228 -0.0644,-0.0643 -1.2277,-0.12823 -2.5853,-0.14205 -1.78346,-0.0182 -2.49313,-0.0991 -2.55758,-0.29183 -0.14025,-0.41932 1.10835,-0.82296 3.74387,-1.2103 2.54968,-0.37472 3.26997,-0.60939 3.0354,-0.98893 -0.0979,-0.15845 -1.31066,-0.19623 -3.90856,-0.12175 -2.07161,0.0594 -3.76495,0.0489 -3.76296,-0.0234 0.005,-0.17932 1.93514,-0.97844 3.47713,-1.43954 1.821,-0.54454 6.63611,-0.53019 8.54364,0.0255 2.11333,0.61559 2.458,1.03388 1.03888,1.26082 -0.53842,0.0861 -0.82776,0.23337 -0.77419,0.39408 0.047,0.14114 1.07469,0.59409 2.28366,1.00656 2.44017,0.83255 4.08817,1.66756 3.82013,1.9356 -0.0965,0.0965 -0.83313,0.0803 -1.63704,-0.0358 -0.8039,-0.11618 -2.16459,-0.21313 -3.02376,-0.21544 -1.54886,-0.004 -1.55887,-5.1e-4 -1.18029,0.41774 0.44741,0.49438 0.30079,0.5067 -0.84381,0.0709 z m 4.93469,-1.02787 c -0.38419,-0.38418 -5.90442,-1.98359 -6.87229,-1.99115 -0.36952,-0.004 -0.92534,0.0911 -1.23512,0.20891 -0.3098,0.11779 -1.47887,0.35865 -2.59793,0.53526 -2.39243,0.37756 -3.45603,0.68638 -3.28987,0.95522 0.0664,0.10748 2.25435,0.20564 4.90662,0.22016 2.63271,0.0144 5.45127,0.0944 6.26343,0.17776 0.81218,0.0833 1.85301,0.1665 2.31296,0.18476 0.75216,0.0298 0.80368,5.1e-4 0.5122,-0.29092 z m -3.85069,-2.90441 c 0.43621,-0.43669 -1.62067,-0.9612 -4.46668,-1.13902 -1.36917,-0.0855 -2.40582,-0.0178 -3.68059,0.24049 -2.09277,0.42405 -2.73786,0.70145 -2.29996,0.98901 0.35593,0.23372 10.20863,0.14839 10.44723,-0.0905 z m -9.25848,3.93262 c 0.14503,-0.0585 0.38236,-0.0585 0.52739,0 0.14502,0.0585 0.0263,0.1064 -0.26369,0.1064 -0.29007,0 -0.40872,-0.0478 -0.2637,-0.1064 z m -13.61033,-3.0246 c 0,-0.40609 0.0435,-0.57222 0.0965,-0.36916 0.053,0.20304 0.053,0.53528 0,0.73833 -0.053,0.20305 -0.0965,0.0369 -0.0965,-0.36917 z m 0.20314,-2.42597 c 0.004,-0.34808 0.0516,-0.46493 0.10506,-0.25968 0.0535,0.20526 0.0499,0.49004 -0.008,0.63286 -0.0577,0.14282 -0.10154,-0.0251 -0.0972,-0.37318 z m 28.74083,-8.807335 -0.61959,-0.685599 0.6856,0.619588 c 0.37708,0.340778 0.6856,0.649293 0.6856,0.685602 0,0.16297 -0.17406,0.0195 -0.75161,-0.619591 z M 209.74133,84.48757 c 0,-0.549178 0.88736,-1.070448 4.74647,-2.788268 0.7947,-0.353743 2.11029,-0.61187 3.79717,-0.745019 2.25576,-0.178054 4.17414,0.247929 6.59747,1.465001 2.19891,1.104361 2.66348,1.5403 1.39885,1.312631 -3.28061,-0.59059 -4.59996,-0.759842 -5.92871,-0.760542 -2.29708,-0.001 -6.312,0.583869 -8.00975,1.167246 -1.51822,0.521679 -2.6015,0.666982 -2.6015,0.348951 z m 1.89998,-0.67543 c 2.95602,-0.855176 8.05975,-1.299894 11.39012,-0.992496 l 1.79312,0.16551 -1.05477,-0.632999 c -0.58013,-0.348146 -1.51036,-0.731144 -2.06718,-0.85111 -1.43472,-0.309086 -4.07593,-0.265877 -5.31622,0.08697 -1.19691,0.340511 -4.11377,1.529685 -5.06289,2.0641 -0.74342,0.418588 -0.68229,0.449364 0.31782,0.160027 z m -4.30302,-0.08692 c 0.0634,-0.165066 0.26863,-0.359011 0.4562,-0.430986 0.28017,-0.10751 0.27143,-0.05396 -0.049,0.30012 -0.45951,0.50774 -0.5648,0.541584 -0.4072,0.130866 z m 21.15105,-1.123823 c -0.2624,-0.334584 -0.25494,-0.342041 0.0796,-0.07964 0.3514,0.275587 0.46315,0.448816 0.28953,0.448816 -0.0438,0 -0.20993,-0.166121 -0.36917,-0.369171 z m -17.11664,-0.50082 c 0.1431,-0.144172 0.31332,-0.208987 0.37828,-0.144036 0.065,0.06495 -0.0522,0.182907 -0.26018,0.262124 -0.30066,0.114483 -0.32488,0.09025 -0.1181,-0.118088 z m 1.7439,-0.598429 c 0.63813,-0.238095 1.44504,-0.638251 1.79311,-0.889239 l 0.63285,-0.456342 -0.4214,0.479305 c -0.55255,0.628458 -1.29853,1.002035 -2.32828,1.165986 -0.76208,0.121329 -0.73327,0.09466 0.32372,-0.29971 z m 8.28396,-1.631123 c 0.20525,-0.05349 0.49004,-0.04997 0.63287,0.0078 0.14282,0.05778 -0.0251,0.101548 -0.37319,0.09725 -0.34808,-0.0042 -0.46494,-0.05158 -0.25968,-0.105065 z m -3.16542,-0.216146 c 0.32065,-0.0485 0.7953,-0.04719 1.05477,0.0031 0.25946,0.05007 -0.003,0.08975 -0.58303,0.08817 -0.58012,-0.0016 -0.79241,-0.04254 -0.47174,-0.09104 z"
     id="path838"
     inkscape:connector-curvature="0" />
  <text
     xml:space="preserve"
     style="font-style:normal;font-variant:normal;font-weight:normal;font-stretch:normal;font-size:41.16238403px;line-height:125%;font-family:Georgia;-inkscape-font-specification:Georgia;letter-spacing:0px;word-spacing:0px;fill:#000000;fill-opacity:1;stroke:none;stroke-width:0.77179474px;stroke-linecap:butt;stroke-linejoin:miter;stroke-opacity:1"
     x="109.99889"
     y="68.477371"
     id="text846"><tspan
       sodipodi:role="line"
       id="tspan844"
       x="109.99889"
       y="68.477371"
       style="stroke-width:0.77179474px">WANTED</tspan></text>
  <text
     id="text850"
     y="217.27962"
     x="157.59288"
     style="font-style:normal;font-variant:normal;font-weight:normal;font-stretch:normal;font-size:41.16238403px;line-height:125%;font-family:Georgia;-inkscape-font-specification:Georgia;letter-spacing:0px;word-spacing:0px;fill:#000000;fill-opacity:1;stroke:none;stroke-width:0.77179474px;stroke-linecap:butt;stroke-linejoin:miter;stroke-opacity:1"
     xml:space="preserve"><tspan
       y="217.27962"
       x="157.59288"
       id="tspan848"
       sodipodi:role="line"
       style="stroke-width:0.77179474px">YOU</tspan></text>
  <text
     xml:space="preserve"
     style="font-style:normal;font-variant:normal;font-weight:normal;font-stretch:normal;font-size:16.39723969px;line-height:125%;font-family:'Abyssinica SIL';-inkscape-font-specification:'Abyssinica SIL';letter-spacing:0px;word-spacing:0px;fill:#000000;fill-opacity:1;stroke:none;stroke-width:0.76862055px;stroke-linecap:butt;stroke-linejoin:miter;stroke-opacity:1"
     x="11.161593"
     y="246.64458"
     id="text854"><tspan
       sodipodi:role="line"
       id="tspan852"
       x="11.161593"
       y="246.64458"
       style="stroke-width:0.76862055px">Join our effort to create reproducible benchmarks</tspan><tspan
       sodipodi:role="line"
       x="11.161593"
       y="267.14111"
       id="tspan856"
       style="stroke-width:0.76862055px">by adding new objectives/solvers/datasets!!!</tspan></text>
</svg>
